<?xml version="1.0" encoding="utf-8"?>
<!-- Generator: Adobe Illustrator 16.0.0, SVG Export Plug-In . SVG Version: 6.00 Build 0)  -->
<!DOCTYPE svg PUBLIC "-//W3C//DTD SVG 1.1//EN" "http://www.w3.org/Graphics/SVG/1.1/DTD/svg11.dtd">
<svg version="1.1" xmlns="http://www.w3.org/2000/svg" xmlns:xlink="http://www.w3.org/1999/xlink" x="0px" y="0px" width="750px"
	 height="500px" viewBox="0 0 750 500" enable-background="new 0 0 750 500" xml:space="preserve">
<g id="Background">
	<g>
		<defs>
			<rect id="SVGID_1_" width="750" height="500"/>
		</defs>
		<clipPath id="SVGID_2_">
			<use xlink:href="#SVGID_1_"  overflow="visible"/>
		</clipPath>
		<linearGradient id="SVGID_3_" gradientUnits="userSpaceOnUse" x1="276" y1="250" x2="846.0082" y2="250">
			<stop  offset="0.0116" style="stop-color:#310054"/>
			<stop  offset="0.5424" style="stop-color:#270043"/>
			<stop  offset="1" style="stop-color:#1C0030"/>
		</linearGradient>
		<rect clip-path="url(#SVGID_2_)" fill="url(#SVGID_3_)" width="750" height="500"/>
		<g clip-path="url(#SVGID_2_)">
			<path opacity="0.26" fill="#F9FAFD" d="M811.999,239.415c-0.357-0.786-0.726-1.602-1.086-2.439
				c-27.469-1.455-55.06-10.536-79.866-22.972c-38.805-19.454-73.17-46.692-110.981-68.011
				c-37.813-21.319-81.38-36.877-124.187-29.675c-33.526,5.641-63.033,24.54-93.172,40.273
				c-30.138,15.734-64.263,28.881-97.503,21.74c-34.558-7.424-61.025-35.383-80.147-65.111
				c-19.122-29.728-33.402-62.732-56.079-89.845c-22.677-27.114-57.065-48.244-91.943-42.503L-40-18v571.895h226.321
				c1.408-30.755,3.046-62.465,16.328-90.239s41.361-50.866,72.058-48.521c26.296,2.009,52.289,21.712,76.791,11.955
				c33.762-13.445,29.086-67.324,58.487-88.683c16.709-12.138,40.545-9.921,58.739-0.149s32.063,25.8,45.715,41.298
				c13.651,15.497,28.032,31.207,46.725,39.988c33.171,15.582,72.853,6.096,105.77-10.017
				C735.322,376.052,789,314.038,813.19,241.931C812.782,241.098,812.383,240.26,811.999,239.415z"/>
			<path opacity="0.33" fill="#F9FAFD" d="M754.071-11.896H198.376c27.591,45.666,77.11,78.394,130.519,82.829
				c42.908,3.563,85.207-9.389,127.031-19.61c41.824-10.222,86.598-17.684,127.286-3.604c30.233,10.462,55.243,31.84,79.332,52.894
				c24.089,21.053,48.78,42.694,78.756,53.874c4.142,1.545,8.419,2.838,12.771,3.879V-11.896z"/>
			<path opacity="0.33" fill="#F9FAFD" d="M787.643,316.644c-18.627,33.455-37.455,67.199-62.781,95.918
				c-25.325,28.72-58.017,52.405-95.513,60.167c-72.049,14.914-142.933-30.347-216.455-33.156
				c-77.345-2.957-153.987,46.682-182.921,118.473H786.07L787.643,316.644z"/>
		</g>
		<g clip-path="url(#SVGID_2_)">
			<circle fill="#5A9CD4" cx="386.5" cy="28.667" r="1.667"/>
			<circle fill="#5A9CD4" cx="126.167" cy="30.5" r="1.667"/>
			<circle fill="#5A9CD4" cx="418.833" cy="115" r="1.667"/>
			<circle fill="#5A9CD4" cx="345.667" cy="91.667" r="1.667"/>
			<circle fill="#5A9CD4" cx="414.667" cy="188.333" r="1.667"/>
			<circle fill="#5A9CD4" cx="576.667" cy="22.667" r="1.667"/>
			<circle fill="#5A9CD4" cx="339.25" cy="55" r="1.667"/>
			<circle fill="#5A9CD4" cx="357.5" cy="159" r="1.667"/>
			<circle fill="#5A9CD4" cx="254" cy="436.333" r="1.667"/>
			<circle fill="#5A9CD4" cx="532.667" cy="321.667" r="1.667"/>
			<circle fill="#5A9CD4" cx="628" cy="286.333" r="1.667"/>
			<circle fill="#5A9CD4" cx="547.667" cy="198.333" r="1.667"/>
			<circle fill="#5A9CD4" cx="576" cy="86.333" r="1.667"/>
			<circle fill="#5A9CD4" cx="400.667" cy="315.667" r="1.667"/>
			<circle fill="#5A9CD4" cx="448.667" cy="431" r="1.667"/>
			<circle fill="#5A9CD4" cx="389.333" cy="468" r="1.667"/>
			<circle fill="#5A9CD4" cx="215.333" cy="388" r="1.667"/>
			<circle fill="#F9FAFD" cx="200.25" cy="38.5" r="2.667"/>
			<circle fill="#F9FAFD" cx="302.667" cy="127.667" r="2.667"/>
			<circle fill="#F9FAFD" cx="445" cy="371.333" r="2.667"/>
			<circle fill="#F9FAFD" cx="614.333" cy="212" r="2.667"/>
			<circle fill="#F9FAFD" cx="200.667" cy="438.333" r="2.667"/>
			<circle fill="#F9FAFD" cx="721.333" cy="313" r="2.667"/>
			<circle fill="#F9FAFD" cx="78.667" cy="480.333" r="2.667"/>
			<circle fill="#F9FAFD" cx="204" cy="133" r="2.667"/>
			<circle fill="#F9FAFD" cx="500" cy="82.833" r="2.667"/>
			<circle fill="#F9FAFD" cx="725.333" cy="73.667" r="2.667"/>
		</g>
	</g>
</g>
<g id="Objects" display="none">
	<g display="inline">
		<defs>
			<rect id="SVGID_4_" width="750" height="500"/>
		</defs>
		<clipPath id="SVGID_5_">
			<use xlink:href="#SVGID_4_"  overflow="visible"/>
		</clipPath>
		<g clip-path="url(#SVGID_5_)">
			<linearGradient id="SVGID_6_" gradientUnits="userSpaceOnUse" x1="188.9814" y1="464.2539" x2="307" y2="464.2539">
				<stop  offset="0" style="stop-color:#4CD6F0"/>
				<stop  offset="1" style="stop-color:#4CD6F0;stop-opacity:0"/>
			</linearGradient>
			<path fill="url(#SVGID_6_)" d="M194.487,458.989l112.303,5.045c0.121,0.006,0.215,0.108,0.209,0.229
				c-0.005,0.114-0.098,0.204-0.209,0.209l-112.303,5.045c-2.907,0.131-5.37-2.12-5.5-5.027c-0.131-2.907,2.121-5.37,5.028-5.501
				C194.17,458.982,194.334,458.983,194.487,458.989z"/>
			<linearGradient id="SVGID_7_" gradientUnits="userSpaceOnUse" x1="185.3149" y1="101.5869" x2="303.333" y2="101.5869">
				<stop  offset="0" style="stop-color:#4CD6F0"/>
				<stop  offset="1" style="stop-color:#4CD6F0;stop-opacity:0"/>
			</linearGradient>
			<path fill="url(#SVGID_7_)" d="M190.821,96.323l112.303,5.045c0.121,0.005,0.215,0.108,0.209,0.229
				c-0.005,0.114-0.098,0.204-0.209,0.21l-112.303,5.044c-2.907,0.131-5.37-2.12-5.5-5.027c-0.131-2.908,2.12-5.37,5.027-5.501
				C190.504,96.316,190.668,96.316,190.821,96.323z"/>
			<linearGradient id="SVGID_8_" gradientUnits="userSpaceOnUse" x1="651.9814" y1="34.2539" x2="770" y2="34.2539">
				<stop  offset="0" style="stop-color:#4CD6F0"/>
				<stop  offset="1" style="stop-color:#4CD6F0;stop-opacity:0"/>
			</linearGradient>
			<path fill="url(#SVGID_8_)" d="M657.487,28.989l112.303,5.045c0.121,0.006,0.215,0.108,0.21,0.229
				c-0.006,0.114-0.098,0.204-0.21,0.209l-112.303,5.045c-2.907,0.13-5.37-2.121-5.501-5.028c-0.13-2.907,2.121-5.37,5.028-5.501
				C657.17,28.982,657.334,28.983,657.487,28.989z"/>
			<linearGradient id="SVGID_9_" gradientUnits="userSpaceOnUse" x1="657.9814" y1="261.9209" x2="776" y2="261.9209">
				<stop  offset="0" style="stop-color:#4CD6F0"/>
				<stop  offset="1" style="stop-color:#4CD6F0;stop-opacity:0"/>
			</linearGradient>
			<path fill="url(#SVGID_9_)" d="M663.487,256.656l112.303,5.045c0.121,0.005,0.215,0.107,0.21,0.229
				c-0.006,0.113-0.098,0.204-0.21,0.209l-112.303,5.045c-2.907,0.131-5.37-2.12-5.501-5.027c-0.13-2.908,2.121-5.37,5.028-5.501
				C663.17,256.649,663.334,256.649,663.487,256.656z"/>
			<linearGradient id="SVGID_10_" gradientUnits="userSpaceOnUse" x1="462.9814" y1="162.7539" x2="581" y2="162.7539">
				<stop  offset="0" style="stop-color:#4CD6F0"/>
				<stop  offset="1" style="stop-color:#4CD6F0;stop-opacity:0"/>
			</linearGradient>
			<path fill="url(#SVGID_10_)" d="M468.487,157.489l112.303,5.045c0.121,0.005,0.215,0.108,0.21,0.229
				c-0.006,0.114-0.098,0.204-0.21,0.209l-112.303,5.045c-2.907,0.131-5.37-2.12-5.501-5.027c-0.13-2.908,2.121-5.37,5.028-5.501
				C468.17,157.482,468.334,157.483,468.487,157.489z"/>
		</g>
		<g clip-path="url(#SVGID_5_)">
			<g>
				<g>
					<path fill="#8DE1FD" d="M285.825,33.081c-9.153,5.522-18.807,6.355-21.52,1.858s2.526-12.648,11.679-18.17
						s18.807-6.355,21.52-1.858C300.217,19.408,294.978,27.559,285.825,33.081z M276.399,17.458
						c-8.379,5.055-13.175,12.517-10.691,16.634s11.322,3.354,19.701-1.701c8.379-5.055,13.176-12.518,10.692-16.635
						C293.617,11.64,284.779,12.403,276.399,17.458z"/>
				</g>
				<g>
					<path fill="#8DE1FD" d="M288.728,37.893c-14.554,8.78-29.903,10.106-34.217,2.955s4.016-20.111,18.57-28.891
						c14.553-8.78,29.904-10.106,34.218-2.956S303.281,29.113,288.728,37.893z M273.742,13.053
						c-13.324,8.038-20.95,19.903-17.001,26.45c3.95,6.547,18.002,5.333,31.326-2.705c13.324-8.039,20.951-19.904,17.001-26.451
						C301.119,3.8,287.065,5.014,273.742,13.053z"/>
				</g>
				<g>
					<path fill="#8DE1FD" d="M291.631,42.706c-19.955,12.039-41,13.856-46.916,4.052c-5.915-9.805,5.507-27.575,25.461-39.613
						c19.955-12.039,41.001-13.856,46.916-4.052S311.586,30.667,291.631,42.706z M271.083,8.647
						c-18.268,11.021-28.725,27.29-23.31,36.266c5.415,8.976,24.683,7.312,42.951-3.709c18.269-11.021,28.726-27.291,23.311-36.266
						C308.62-4.039,289.352-2.375,271.083,8.647z"/>
				</g>
				<g>
					<path fill="#8DE1FD" d="M294.535,47.518c-25.355,15.297-52.098,17.606-59.614,5.148c-7.516-12.458,6.998-35.038,32.353-50.335
						c25.356-15.297,52.099-17.607,59.615-5.149C334.404,9.641,319.89,32.221,294.535,47.518z M268.425,4.241
						c-23.212,14.004-36.499,34.676-29.618,46.081c6.881,11.406,31.363,9.292,54.576-4.713c23.212-14.004,36.5-34.676,29.619-46.082
						S291.638-9.763,268.425,4.241z"/>
				</g>
				<g>
					<path fill="#8DE1FD" d="M297.438,52.331c-30.756,18.555-63.195,21.357-72.312,6.245c-9.117-15.111,8.488-42.501,39.244-61.057
						c30.756-18.555,63.196-21.357,72.313-6.245C345.8,6.385,328.194,33.775,297.438,52.331z M265.768-0.165
						c-28.157,16.987-44.274,42.063-35.928,55.897c8.346,13.834,38.044,11.27,66.201-5.717
						c28.157-16.987,44.275-42.063,35.929-55.897C323.623-19.717,293.925-17.152,265.768-0.165z"/>
				</g>
			</g>
			<g>
				<g>
					<path fill="#8DE1FD" d="M722.319,191.558c-9.152,5.522-18.806,6.355-21.52,1.858c-2.713-4.497,2.526-12.648,11.679-18.17
						c9.153-5.522,18.807-6.356,21.52-1.859C736.712,177.884,731.473,186.036,722.319,191.558z M712.895,175.935
						c-8.379,5.055-13.176,12.518-10.691,16.634c2.483,4.117,11.321,3.354,19.7-1.701c8.38-5.055,13.177-12.518,10.692-16.635
						C730.112,170.117,721.274,170.88,712.895,175.935z"/>
				</g>
				<g>
					<path fill="#8DE1FD" d="M725.223,196.37c-14.554,8.78-29.903,10.105-34.217,2.955c-4.314-7.15,4.016-20.111,18.569-28.891
						s29.904-10.106,34.218-2.956C748.107,174.629,739.776,187.59,725.223,196.37z M710.236,171.529
						c-13.323,8.038-20.95,19.904-17.001,26.45c3.95,6.546,18.003,5.333,31.326-2.705c13.324-8.039,20.951-19.904,17.002-26.451
						C737.613,162.277,723.561,163.491,710.236,171.529z"/>
				</g>
				<g>
					<path fill="#8DE1FD" d="M728.126,201.183c-19.954,12.039-41,13.855-46.915,4.051s5.507-27.575,25.461-39.613
						c19.955-12.039,41.001-13.856,46.916-4.052C759.503,171.374,748.081,189.144,728.126,201.183z M707.578,167.124
						c-18.268,11.021-28.725,27.29-23.31,36.266c5.415,8.976,24.683,7.312,42.951-3.709c18.269-11.021,28.726-27.291,23.311-36.267
						C745.115,154.438,725.848,156.102,707.578,167.124z"/>
				</g>
				<g>
					<path fill="#8DE1FD" d="M731.029,205.995c-25.354,15.296-52.098,17.606-59.613,5.148c-7.517-12.458,6.997-35.038,32.353-50.335
						s52.099-17.607,59.614-5.149C770.899,168.118,756.385,190.698,731.029,205.995z M704.92,162.718
						c-23.212,14.004-36.499,34.676-29.618,46.081s31.363,9.291,54.576-4.713c23.212-14.004,36.5-34.676,29.619-46.082
						S728.133,148.713,704.92,162.718z"/>
				</g>
				<g>
					<path fill="#8DE1FD" d="M733.933,210.808c-30.756,18.555-63.194,21.356-72.312,6.245c-9.117-15.112,8.488-42.502,39.244-61.057
						c30.757-18.556,63.195-21.357,72.313-6.246C782.295,164.862,764.689,192.252,733.933,210.808z M702.263,158.312
						c-28.157,16.987-44.274,42.062-35.928,55.896c8.346,13.835,38.044,11.271,66.201-5.717s44.274-42.063,35.928-55.897
						S730.42,141.325,702.263,158.312z"/>
				</g>
			</g>
		</g>
		<g clip-path="url(#SVGID_5_)">
			<g>
				<linearGradient id="SVGID_11_" gradientUnits="userSpaceOnUse" x1="407.1045" y1="46.7622" x2="442.8032" y2="84.0301">
					<stop  offset="0.0081" style="stop-color:#FFFFFF"/>
					<stop  offset="1" style="stop-color:#FFFFFF;stop-opacity:0"/>
				</linearGradient>
				<circle fill="url(#SVGID_11_)" cx="422.459" cy="62.792" r="24.192"/>
				<g>
					<g>
						<defs>
							<circle id="SVGID_12_" cx="422.643" cy="62.792" r="19.518"/>
						</defs>
						<clipPath id="SVGID_13_">
							<use xlink:href="#SVGID_12_"  overflow="visible"/>
						</clipPath>
						<linearGradient id="SVGID_14_" gradientUnits="userSpaceOnUse" x1="410.2539" y1="49.8594" x2="439.0555" y2="79.927">
							<stop  offset="0" style="stop-color:#61C6F2"/>
							<stop  offset="0.167" style="stop-color:#58BBEB"/>
							<stop  offset="0.4572" style="stop-color:#409FDA"/>
							<stop  offset="0.834" style="stop-color:#1971BE"/>
							<stop  offset="0.8936" style="stop-color:#1269B9"/>
						</linearGradient>
						<circle clip-path="url(#SVGID_13_)" fill="url(#SVGID_14_)" cx="422.643" cy="62.792" r="19.518"/>
						<g opacity="0.53" clip-path="url(#SVGID_13_)">
							<path fill="#5A9CD4" d="M429.544,42.661c0.84,3.336-0.586,7.124-3.418,9.078c-2.179,1.504-5.058,2.001-6.814,3.982
								c-1.286,1.451-1.73,3.445-2.086,5.351c-0.356,1.907-0.702,3.899-1.855,5.458c-1.154,1.559-3.397,2.506-5.089,1.557
								c-1.447-0.813-1.965-2.653-2-4.312s0.27-3.348-0.111-4.963c-0.284-1.203-0.932-2.281-1.521-3.367
								c-0.59-1.085-1.142-2.238-1.204-3.472c-0.127-2.501,1.044-4.38,3.131-5.668c1.763-1.087,4.251-2.454,6.193-3.011
								c-0.405,1.004-1.189,1.807-1.397,2.939c-0.208,1.135,0.223,2.475,1.276,2.944c0.831,0.369,1.804,0.118,2.632-0.257
								c2.622-1.191,4.635-3.648,5.284-6.455L429.544,42.661z"/>
							<path fill="#5A9CD4" d="M431.836,47.618c-0.802,1.394-1.106,3.021-1.517,4.584c-0.411,1.564-0.982,3.167-2.157,4.245
								c-1.295,1.188-3.103,1.547-4.633,2.388c-1.626,0.894-3.158,2.976-3.411,7.313c-0.182,3.119,2.914,5.341,5.7,4.101
								c7.263-3.234,16.728-10.91,13.234-22.252C438.016,44.627,433.96,43.929,431.836,47.618z"/>
							<path fill="#5A9CD4" d="M401.358,57.333c1.285-0.5,2.152,0.01,2.761,1.248c0.609,1.238,0.589,2.677,0.612,4.056
								c0.072,4.396,1.58,8.738,5.808,10.749c2.918,1.388,6.039,2.24,9.283,2.315c9.375,0.219,20.422-7.427,21.569-17.168
								c0.086-0.727,0.346-2.007,0.075-2.702c2.108,5.409,2.604,9.169,0.057,14.387c-1.048,2.147-2.642,3.999-4.642,5.305
								c-13.87,9.055-25.64,3.912-28.561,1.75c-2.921-2.163-4.513-5.455-5.776-8.862C401.281,65.002,400.805,61.052,401.358,57.333z
								"/>
						</g>
					</g>
					
						<linearGradient id="SVGID_15_" gradientUnits="userSpaceOnUse" x1="435.8926" y1="40.2065" x2="442.3869" y2="51.9775" gradientTransform="matrix(1.0867 -0.0677 0.0734 1.1791 -62.9264 31.4937)">
						<stop  offset="0" style="stop-color:#FFFFFF"/>
						<stop  offset="1" style="stop-color:#FFFFFF;stop-opacity:0"/>
					</linearGradient>
					<path opacity="0.7" fill="url(#SVGID_15_)" d="M426.999,48.944c-2.306-2.963-8.122-1.767-12.99,2.672
						s-6.946,10.44-4.641,13.403s8.122,1.767,12.99-2.672C427.228,57.908,429.305,51.907,426.999,48.944z"/>
					<g opacity="0.49">
						<path fill="#C4C4C4" d="M428.105,44.056c5.874,3.364,9.834,9.689,9.834,16.943c0,10.779-8.737,19.517-19.517,19.517
							c-1.897,0-3.729-0.276-5.464-0.781c2.854,1.635,6.158,2.574,9.684,2.574c10.779,0,19.518-8.738,19.518-19.517
							C442.16,53.911,436.225,46.419,428.105,44.056z"/>
					</g>
				</g>
			</g>
			<g>
				<g>
					<g>
						<g>
							<linearGradient id="SVGID_16_" gradientUnits="userSpaceOnUse" x1="614.9316" y1="85.437" x2="677.3976" y2="147.9029">
								<stop  offset="0.0081" style="stop-color:#FFFFFF"/>
								<stop  offset="1" style="stop-color:#FFFFFF;stop-opacity:0"/>
							</linearGradient>
							<path fill="url(#SVGID_16_)" d="M641.198,149.505c-20.845,0-37.804-16.958-37.804-37.803s16.959-37.802,37.804-37.802
								c20.844,0,37.802,16.957,37.802,37.802S662.042,149.505,641.198,149.505z"/>
							<linearGradient id="SVGID_17_" gradientUnits="userSpaceOnUse" x1="612.0166" y1="111.7031" x2="670.3779" y2="111.7031">
								<stop  offset="0" style="stop-color:#FEE62A"/>
								<stop  offset="0.1378" style="stop-color:#FDD82B"/>
								<stop  offset="0.3964" style="stop-color:#F9B42C"/>
								<stop  offset="0.7453" style="stop-color:#F37B2F"/>
								<stop  offset="0.9911" style="stop-color:#EF4E31"/>
							</linearGradient>
							<circle fill="url(#SVGID_17_)" cx="641.197" cy="111.703" r="29.181"/>
							<path opacity="0.56" fill="#D48024" d="M622.895,122.21c2.72-2.204,6.334-2.974,9.829-3.173
								c3.494-0.199,7.013,0.102,10.492-0.278c1.719-0.188,3.458-0.556,4.936-1.452c1.479-0.897,2.67-2.397,2.843-4.117
								c0.28-2.781-2.229-5.252-4.965-5.821c-2.737-0.568-5.563,0.317-8.123,1.44c-2.56,1.123-5.051,2.507-7.8,3.016
								c-3.868,0.716-7.747-0.405-11.257-1.988c-1.921-0.866-4.135-2.573-6.393-3.162c-0.284,1.634-0.44,3.313-0.44,5.028
								c0,5.763,1.677,11.131,4.561,15.655c0.025-0.008,0.051-0.013,0.076-0.021C619.226,126.466,620.784,123.92,622.895,122.21z"/>
							<path opacity="0.56" fill="#D48024" d="M665.91,117.46c-6.863,4.518-14.941,7.207-23.158,7.566
								c-1.211,0.053-2.464,0.066-3.567,0.569s-2.02,1.654-1.817,2.85c0.315,1.87,2.775,2.34,4.668,2.225
								c9.342-0.564,18.075-4.599,26.486-8.713c0.937-2.496,1.537-5.154,1.756-7.92C668.611,115.07,666.99,116.75,665.91,117.46z"/>
							<path opacity="0.56" fill="#D48024" d="M627.907,106.564c6.696-0.065,13.068-2.689,19.246-5.272
								c0.664-0.277,1.403-0.635,1.608-1.325c0.337-1.13-0.997-2.04-2.152-2.279c-6.279-1.302-12.438,4.428-18.718,3.126
								c-3.969-0.823-6.859-4.255-10.553-5.902c-1.38,1.957-2.525,4.089-3.395,6.36c0.886,0.851,1.777,1.559,2.358,1.955
								C619.67,105.521,623.855,106.604,627.907,106.564z"/>
							<path opacity="0.56" fill="#D48024" d="M654.249,103.525c-0.835,1.042-1.512,2.277-1.581,3.611
								c-0.069,1.334,0.592,2.765,1.814,3.301c1.361,0.598,2.965-0.035,4.137-0.95c1.172-0.915,2.123-2.11,3.391-2.886
								c1.52-0.929,3.35-1.172,5.123-1.332c0.819-0.074,1.648-0.143,2.466-0.259c-0.643-2.735-1.668-5.321-3.02-7.7
								c-1.851,0.382-3.492,0.88-4.335,1.143C659.186,99.404,656.251,101.024,654.249,103.525z"/>
							<path opacity="0.56" fill="#D48024" d="M629.437,94.274c4.091,0.845,8.318,0.609,12.489,0.37
								c4.978-0.287,10.101-0.609,14.6-2.758c1.108-0.529,2.26-1.284,2.569-2.473c0.062-0.235,0.081-0.468,0.068-0.696
								c-1.434-1.123-2.975-2.113-4.606-2.955c-1.466,0.199-2.875,0.88-4.261,1.461c-7.861,3.292-17.037,3.23-24.892-0.053
								c-1.479,0.954-2.866,2.036-4.146,3.234c0.085,0.076,0.162,0.143,0.226,0.197C623.736,92.507,626.567,93.682,629.437,94.274z"
								/>
							<path opacity="0.56" fill="#D48024" d="M630.306,130.904c1.196-0.368,2.351-1.408,2.223-2.653
								c-0.11-1.07-1.161-1.852-2.227-2s-2.133,0.195-3.138,0.579c-2.833,1.083-5.248,2.72-7.873,4.141
								c0.918,1.042,1.908,2.018,2.965,2.921c1.322-1.037,2.679-2.021,4.347-2.409C627.82,131.199,629.11,131.272,630.306,130.904z"
								/>
							<path opacity="0.56" fill="#D48024" d="M647.968,134.34c-0.056-0.651-0.636-1.161-1.265-1.338
								c-0.628-0.177-1.298-0.09-1.943,0.01c-5.541,0.864-10.722,2.725-15.714,5.22c2.178,1,4.499,1.737,6.926,2.176
								c3.325-1.33,6.65-2.66,9.975-3.989C646.912,136.033,648.056,135.376,647.968,134.34z"/>
							<path opacity="0.8" fill="#969499" d="M641.197,82.522c-0.658,0-1.309,0.03-1.956,0.073
								c12.05,3.59,20.838,14.748,20.838,27.964c0,15.458-12.021,28.101-27.225,29.108c2.644,0.788,5.442,1.217,8.343,1.217
								c16.116,0,29.181-13.065,29.181-29.181S657.313,82.522,641.197,82.522z"/>
						</g>
					</g>
					
						<linearGradient id="SVGID_18_" gradientUnits="userSpaceOnUse" x1="626.5518" y1="85.1602" x2="636.7879" y2="103.7132" gradientTransform="matrix(1.0867 -0.0677 0.0734 1.1791 -62.9264 31.4937)">
						<stop  offset="0" style="stop-color:#FFFFFF"/>
						<stop  offset="1" style="stop-color:#FFFFFF;stop-opacity:0"/>
					</linearGradient>
					<path opacity="0.7" fill="url(#SVGID_18_)" d="M645.146,88.783c-3.635-4.671-12.802-2.786-20.477,4.212
						c-7.674,6.997-10.948,16.456-7.314,21.127c3.635,4.671,12.803,2.786,20.477-4.211
						C645.505,102.913,648.78,93.454,645.146,88.783z"/>
				</g>
				<g>
					<linearGradient id="SVGID_19_" gradientUnits="userSpaceOnUse" x1="283.2285" y1="332.2695" x2="386.832" y2="440.4271">
						<stop  offset="0.0081" style="stop-color:#FFFFFF"/>
						<stop  offset="1" style="stop-color:#FFFFFF;stop-opacity:0"/>
					</linearGradient>
					<circle fill="url(#SVGID_19_)" cx="327.793" cy="378.793" r="70.207"/>
					<g>
						<g>
							<defs>
								<circle id="SVGID_20_" cx="328.324" cy="378.792" r="56.641"/>
							</defs>
							<clipPath id="SVGID_21_">
								<use xlink:href="#SVGID_20_"  overflow="visible"/>
							</clipPath>
							<linearGradient id="SVGID_22_" gradientUnits="userSpaceOnUse" x1="292.3716" y1="341.2588" x2="375.9547" y2="428.516">
								<stop  offset="0" style="stop-color:#61C6F2"/>
								<stop  offset="0.167" style="stop-color:#58BBEB"/>
								<stop  offset="0.4572" style="stop-color:#409FDA"/>
								<stop  offset="0.834" style="stop-color:#1971BE"/>
								<stop  offset="0.8936" style="stop-color:#1269B9"/>
							</linearGradient>
							<circle clip-path="url(#SVGID_21_)" fill="url(#SVGID_22_)" cx="328.324" cy="378.792" r="56.641"/>
							<g opacity="0.53" clip-path="url(#SVGID_21_)">
								<path fill="#5A9CD4" d="M348.353,320.367c2.437,9.684-1.701,20.675-9.918,26.348c-6.323,4.365-14.68,5.807-19.777,11.556
									c-3.733,4.212-5.022,9.997-6.055,15.53s-2.038,11.314-5.385,15.84c-3.347,4.524-9.86,7.273-14.767,4.517
									c-4.199-2.358-5.701-7.699-5.804-12.514c-0.103-4.815,0.783-9.716-0.325-14.403c-0.825-3.489-2.702-6.62-4.413-9.771
									c-1.711-3.15-3.311-6.494-3.493-10.076c-0.369-7.259,3.028-12.711,9.087-16.449c5.114-3.154,12.334-7.122,17.973-8.738
									c-1.176,2.914-3.452,5.242-4.055,8.528c-0.604,3.294,0.645,7.184,3.704,8.545c2.41,1.072,5.235,0.344,7.636-0.747
									c7.612-3.456,13.451-10.588,15.337-18.731L348.353,320.367z"/>
								<path fill="#5A9CD4" d="M355.004,334.755c-2.328,4.045-3.212,8.765-4.403,13.305c-1.19,4.539-2.851,9.189-6.26,12.318
									c-3.758,3.448-9.004,4.488-13.445,6.931c-4.718,2.594-9.166,8.636-9.899,21.224c-0.527,9.053,8.458,15.501,16.543,11.9
									c21.077-9.385,48.544-31.662,38.408-64.579C372.937,326.075,361.167,324.047,355.004,334.755z"/>
								<path fill="#5A9CD4" d="M266.554,362.947c3.731-1.451,6.246,0.029,8.013,3.622c1.768,3.592,1.708,7.768,1.775,11.771
									c0.211,12.757,4.586,25.357,16.854,31.194c8.469,4.029,17.528,6.502,26.941,6.722c27.208,0.636,59.269-21.557,62.599-49.824
									c0.249-2.109,1.004-5.824,0.217-7.843c6.12,15.698,7.557,26.612,0.166,41.753c-3.042,6.23-7.667,11.604-13.472,15.395
									c-40.252,26.279-74.409,11.353-82.886,5.077c-8.478-6.275-13.096-15.829-16.763-25.719
									C266.331,385.206,264.947,373.74,266.554,362.947z"/>
							</g>
						</g>
						
							<linearGradient id="SVGID_23_" gradientUnits="userSpaceOnUse" x1="317.2817" y1="279.7773" x2="336.1287" y2="313.9373" gradientTransform="matrix(1.0867 -0.0677 0.0734 1.1791 -62.9264 31.4937)">
							<stop  offset="0" style="stop-color:#FFFFFF"/>
							<stop  offset="1" style="stop-color:#FFFFFF;stop-opacity:0"/>
						</linearGradient>
						<path opacity="0.7" fill="url(#SVGID_23_)" d="M340.967,338.602c-6.691-8.6-23.57-5.128-37.7,7.754
							c-14.129,12.884-20.159,30.299-13.467,38.898c6.692,8.601,23.57,5.129,37.7-7.754S347.659,347.202,340.967,338.602z"/>
						<g opacity="0.49">
							<path fill="#C4C4C4" d="M344.179,324.416c17.046,9.764,28.54,28.119,28.54,49.171c0,31.282-25.359,56.642-56.642,56.642
								c-5.506,0-10.822-0.801-15.855-2.267c8.284,4.745,17.872,7.471,28.102,7.471c31.282,0,56.641-25.358,56.641-56.641
								C384.965,353.016,367.741,331.275,344.179,324.416z"/>
						</g>
					</g>
				</g>
				<g>
					<linearGradient id="SVGID_24_" gradientUnits="userSpaceOnUse" x1="466.667" y1="480.2852" x2="789.2393" y2="480.2852">
						<stop  offset="0.0081" style="stop-color:#FFFFFF"/>
						<stop  offset="1" style="stop-color:#FFFFFF;stop-opacity:0"/>
					</linearGradient>
					<circle fill="url(#SVGID_24_)" cx="627.953" cy="480.285" r="161.286"/>
					<g>
						<defs>
							<circle id="SVGID_25_" cx="628.552" cy="481.035" r="138.354"/>
						</defs>
						<clipPath id="SVGID_26_">
							<use xlink:href="#SVGID_25_"  overflow="visible"/>
						</clipPath>
						<linearGradient id="SVGID_27_" gradientUnits="userSpaceOnUse" x1="555.4932" y1="389.7773" x2="714.2948" y2="588.136">
							<stop  offset="0" style="stop-color:#FEE62A"/>
							<stop  offset="0.1378" style="stop-color:#FDD82B"/>
							<stop  offset="0.3964" style="stop-color:#F9B42C"/>
							<stop  offset="0.7453" style="stop-color:#F37B2F"/>
							<stop  offset="0.9911" style="stop-color:#EF4E31"/>
						</linearGradient>
						<circle clip-path="url(#SVGID_26_)" fill="url(#SVGID_27_)" cx="628.552" cy="481.035" r="138.354"/>
						<path opacity="0.33" clip-path="url(#SVGID_26_)" fill="#EF4E31" d="M607.546,352.89c-2.788,1.768-5.609,4.613-4.982,7.854
							c0.635,3.275,4.356,4.843,7.613,5.568c9.055,2.016,18.605,1.76,27.54-0.737c2.014-0.563,4.04-1.261,5.689-2.546
							s2.882-3.261,2.803-5.351c-0.24-6.363-10.063-9.615-15.084-10.163C622.964,346.625,614.491,348.487,607.546,352.89z"/>
						<path opacity="0.33" clip-path="url(#SVGID_26_)" fill="#EF4E31" d="M606.199,402.317c-1.679,1.234-3.223,2.752-4.051,4.664
							c-0.829,1.912-0.833,4.272,0.383,5.965c1.942,2.706,5.922,2.721,9.21,2.187c3.564-0.578,7.077-1.479,10.48-2.687
							c2.798-0.993,5.686-2.327,7.283-4.83c3.355-5.255-1.402-8.635-5.98-9.341C617.48,397.345,611.161,398.67,606.199,402.317z"/>
						<path opacity="0.33" clip-path="url(#SVGID_26_)" fill="#EF4E31" d="M613.748,448.359c1.451,1.48,3.778,1.657,5.832,1.374
							c5.802-0.799,11.165-9.384,3.39-11.571C618.028,436.772,608.685,443.197,613.748,448.359z"/>
						<path opacity="0.33" clip-path="url(#SVGID_26_)" fill="#EF4E31" d="M633.622,388.737c1.451,1.48,3.778,1.657,5.833,1.374
							c5.801-0.799,11.164-9.384,3.389-11.571C637.903,377.15,628.559,383.575,633.622,388.737z"/>
						<path opacity="0.33" clip-path="url(#SVGID_26_)" fill="#EF4E31" d="M679.711,461.24c-0.908,2.822-0.526,6.414,1.955,8.036
							c1.576,1.029,3.619,1.021,5.466,0.651c2.562-0.513,5.035-1.686,6.832-3.582c1.797-1.896,2.854-4.555,2.545-7.148
							C695.155,447.861,682.049,453.97,679.711,461.24z"/>
						<path opacity="0.33" clip-path="url(#SVGID_26_)" fill="#EF4E31" d="M639.376,444.196c-4.125,4.735-5.309,11.339-5.584,17.612
							c-0.3,6.822,0.283,13.684,1.729,20.358c1.204,5.555,3.607,11.652,8.914,13.688c3.998,1.533,8.668,0.196,12.03-2.456
							c3.362-2.65,5.63-6.435,7.552-10.261c3.805-7.575,6.598-16.066,5.336-24.449C667.437,445.959,650.624,431.287,639.376,444.196
							z"/>
						<path opacity="0.33" clip-path="url(#SVGID_26_)" fill="#EF4E31" d="M568.043,436.511c-4.278,5.517-6.836,12.665-5.646,19.543
							s6.682,13.157,13.605,14.05c4.212,0.543,8.501-0.87,12.068-3.174c7.256-4.687,11.848-13.236,11.747-21.873
							c-0.083-7.137-4.082-18.323-11.937-20.281C580.389,422.907,572.126,431.246,568.043,436.511z"/>
						<path opacity="0.33" clip-path="url(#SVGID_26_)" fill="#EF4E31" d="M553.69,375.551
							c-8.938,6.064-15.498,15.542-18.023,26.044c-1.129,4.696-1.1,10.485,2.77,13.377c3.942,2.945,9.54,1.232,13.998-0.854
							c9.994-4.679,19.346-10.729,27.71-17.929c3.939-3.391,7.786-7.228,9.486-12.139c2.465-7.125-0.757-15.299-8.551-15.991
							C571.613,367.218,561.49,370.26,553.69,375.551z"/>
						<path opacity="0.33" clip-path="url(#SVGID_26_)" fill="#EF4E31" d="M679.355,490.622c-3.665,2.556-5.96,6.619-7.86,10.663
							c-4.198,8.938-7.077,18.495-8.516,28.265c-0.751,5.109-0.995,10.741,1.935,14.993c2.334,3.388,6.427,5.319,10.531,5.605
							c4.104,0.285,8.203-0.932,11.852-2.833c9.787-5.101,16.646-15.429,17.55-26.429c0.719-8.759-2.353-17.54-7.988-24.221
							C692.017,490.926,687.535,484.919,679.355,490.622z"/>
						<path opacity="0.33" clip-path="url(#SVGID_26_)" fill="#EF4E31" d="M618.521,535.159c-1.165,1.577-2.169,3.33-2.518,5.26
							c-0.348,1.931,0.042,4.066,1.372,5.508c1.454,1.575,3.797,2.08,5.92,1.787c2.124-0.293,4.084-1.273,5.97-2.294
							c3.874-2.096,7.684-4.47,10.607-7.765c4.564-5.146,6.449-13.694-3.006-12.926
							C629.753,525.307,622.729,529.465,618.521,535.159z"/>
						<path opacity="0.33" clip-path="url(#SVGID_26_)" fill="#EF4E31" d="M594.17,476.164c-1.082,4.604,1.259,9.592,5.058,12.41
							c3.799,2.817,8.789,3.674,13.494,3.188c8.147-0.842,17.153-8.063,13.36-17.139c-2.989-7.153-14.242-9.033-20.948-7.774
							C600.245,467.767,595.361,471.096,594.17,476.164z"/>
						<path opacity="0.33" clip-path="url(#SVGID_26_)" fill="#EF4E31" d="M591.818,527.838c1.306,2.11,4.106,3.021,6.523,2.46
							c5.479-1.273,9.552-10.199,3.36-13.39C595.998,513.97,588.474,522.432,591.818,527.838z"/>
						<path opacity="0.33" clip-path="url(#SVGID_26_)" fill="#EF4E31" d="M712.859,493.632c0.033,0.924,0.488,1.875,1.31,2.301
							c3.05,1.577,9.521-4.596,6.536-7.68C717.234,484.667,712.728,490.065,712.859,493.632z"/>
						<path opacity="0.33" clip-path="url(#SVGID_26_)" fill="#EF4E31" d="M715.644,448.324c-2.36,0.855-4.804,2.661-4.805,5.171
							c0,2.481,2.35,4.254,4.537,5.425c2.693,1.442,5.609,2.643,8.664,2.726c3.054,0.084,6.278-1.125,7.981-3.662
							C738.746,447.968,721.066,446.357,715.644,448.324z"/>
						<path opacity="0.33" clip-path="url(#SVGID_26_)" fill="#EF4E31" d="M650.249,392.846c-5.262,6.757-4.936,16.869-0.362,24.109
							c4.573,7.239,12.718,11.731,21.141,13.274c5.994,1.099,12.821,0.601,17.22-3.617c5.338-5.118,5.115-14.098,1.51-20.555
							C682.986,393.931,662.186,377.52,650.249,392.846z"/>
						<path opacity="0.33" clip-path="url(#SVGID_26_)" fill="#EF4E31" d="M686.518,366.63c-2.938,0.299-5.919,2.421-6.144,5.366
							c-0.254,3.345,2.95,5.926,6.078,7.135c2.433,0.94,5.128,1.452,7.655,0.811c2.527-0.641,4.82-2.633,5.246-5.205
							C700.335,368.816,690.805,366.195,686.518,366.63z"/>
						<path opacity="0.33" clip-path="url(#SVGID_26_)" fill="#EF4E31" d="M706.83,390.333c-2.593,3.49-1.543,8.423,0.03,12.476
							c2.647,6.819,6.467,13.183,11.241,18.725c2.474,2.871,5.548,5.688,9.328,5.949c4.141,0.286,8.026-2.823,9.479-6.712
							C741.075,409.618,718.293,374.9,706.83,390.333z"/>
						<path opacity="0.33" clip-path="url(#SVGID_26_)" fill="#EF4E31" d="M739.069,489.76c0.609,2.508,2.804,4.668,5.379,4.84
							c3.295,0.219,6.01-2.604,7.549-5.525c2.194-4.167,1.688-11.327-4.526-11.15C742.383,478.067,737.953,485.163,739.069,489.76z"
							/>
						<path opacity="0.33" clip-path="url(#SVGID_26_)" fill="#EF4E31" d="M733.193,536.456c1.753,1.452,4.328,1.594,6.474,0.833
							c8.451-2.996,17.621-18.845,5.552-23.249C734.84,510.252,725.842,530.365,733.193,536.456z"/>
						<path opacity="0.33" clip-path="url(#SVGID_26_)" fill="#EF4E31" d="M695.343,572.015c-0.77,9.118,5.811,18.574,14.829,20.124
							c5.554,0.953,11.215-0.904,16.282-3.368c9.494-4.617,20.821-15.767,14.063-27.101c-6.387-10.713-23.97-12.585-33.927-6.69
							C700.542,558.561,695.942,564.907,695.343,572.015z"/>
						<path opacity="0.33" clip-path="url(#SVGID_26_)" fill="#EF4E31" d="M634.349,578.558c-2.795,2.172-5.419,5.013-5.845,8.527
							c-0.584,4.819,3.405,9.314,8.059,10.698c4.652,1.385,9.689,0.303,14.234-1.402c3.325-1.248,6.583-2.865,9.132-5.339
							c5.288-5.132,6.097-15.837-1.634-19.202C650.784,568.569,640.117,574.077,634.349,578.558z"/>
						<path opacity="0.33" clip-path="url(#SVGID_26_)" fill="#EF4E31" d="M601.626,560.975c-2.574-0.746-5.654-0.373-7.452,1.614
							c-2.271,2.51-1.718,6.422-0.758,9.667c1.008,3.408,2.338,6.775,4.48,9.611s5.179,5.115,8.668,5.794
							c3.489,0.678,7.412-0.456,9.587-3.268c2.396-3.099,2.272-7.608,0.594-11.147C614.108,567.689,607.504,562.677,601.626,560.975
							z"/>
						<path opacity="0.33" clip-path="url(#SVGID_26_)" fill="#EF4E31" d="M550.661,526.512c4.461,6.03,11.541,10.747,19.015,10.103
							c9.102-0.785,16.072-9.622,16.95-18.716c0.879-9.093-3.189-18.046-8.78-25.271c-2.992-3.867-6.566-7.47-11.067-9.38
							C541.208,472.394,541.118,513.611,550.661,526.512z"/>
						<path opacity="0.33" clip-path="url(#SVGID_26_)" fill="#EF4E31" d="M529.49,475.194c3.534,1.095,7.345-0.8,10.056-3.318
							c6.871-6.384,6.769-22.58-5.793-18.951C525.656,455.264,518.522,471.798,529.49,475.194z"/>
						<path opacity="0.33" clip-path="url(#SVGID_26_)" fill="#EF4E31" d="M484.415,438.709c-0.447,4.867-0.299,9.925,1.617,14.422
							c1.916,4.496,5.875,8.347,10.709,9.068c6.856,1.023,13.017-4.185,17.389-9.565c4.741-5.835,8.735-12.488,10.224-19.858
							c1.488-7.369,0.194-15.545-4.637-21.306C500.226,388.226,485.863,422.948,484.415,438.709z"/>
						<path opacity="0.33" clip-path="url(#SVGID_26_)" fill="#EF4E31" d="M521.536,549.701c-5.294-1.566-11.724-2.065-15.664,1.801
							c-4.005,3.932-3.537,10.492-2,15.89c4.377,15.366,15.332,28.739,29.537,36.054c7.035,3.623,16.527,5.427,22.18-0.111
							c8.504-8.332,0.875-22.684-3.853-31.068C545.558,561.309,533.396,553.212,521.536,549.701z"/>
						<path opacity="0.33" clip-path="url(#SVGID_26_)" fill="#EF4E31" d="M562.499,562.261c1.923,3,6.396,3.989,9.404,2.079
							s4.018-6.378,2.121-9.396c-1.897-3.018-6.361-4.045-9.387-2.162c-3.025,1.884-4.073,6.343-2.202,9.377"/>
						<path opacity="0.33" clip-path="url(#SVGID_26_)" fill="#EF4E31" d="M516.276,526.715c2.269,2.413,5.853,4.431,8.767,2.855
							c2.542-1.374,3.15-4.72,3.196-7.609c0.066-4.264-0.466-8.536-1.577-12.653c-1.82-6.741-9.349-14.332-14.952-6.391
							C506.803,509.873,511.165,521.276,516.276,526.715z"/>
						
							<linearGradient id="SVGID_28_" gradientUnits="userSpaceOnUse" x1="539.083" y1="320.4824" x2="587.5366" y2="408.3045" gradientTransform="matrix(1.0867 -0.0677 0.0734 1.1791 -62.9264 31.4937)">
							<stop  offset="0" style="stop-color:#FFFFFF"/>
							<stop  offset="1" style="stop-color:#FFFFFF;stop-opacity:0"/>
						</linearGradient>
						<path opacity="0.83" clip-path="url(#SVGID_26_)" fill="url(#SVGID_28_)" d="M645.573,369.541
							c-17.204-22.111-60.599-13.186-96.925,19.936c-36.326,33.122-51.828,77.896-34.623,100.007
							c17.204,22.111,60.599,13.187,96.925-19.936C647.277,436.426,662.777,391.652,645.573,369.541z"/>
						<g opacity="0.46" clip-path="url(#SVGID_26_)">
							<path fill="#969499" d="M672.694,349.875c31.791,25.35,52.17,64.406,52.17,108.229c0,76.41-61.943,138.354-138.354,138.354
								c-15.436,0-30.279-2.53-44.144-7.194c23.643,18.853,53.596,30.126,86.185,30.126c76.411,0,138.354-61.943,138.354-138.354
								C766.906,420.06,727.459,368.299,672.694,349.875z"/>
						</g>
					</g>
				</g>
				<g>
					<path fill="none" d="M441.83,66.773c5.344-0.576,8.67-1.381,8.67-2.273c0-0.87-3.161-1.658-8.274-2.23
						c0.004,0.161,0.024,0.318,0.024,0.48C442.25,64.13,442.103,65.475,441.83,66.773z"/>
					<path fill="none" d="M403.282,62.113c-5.991,0.581-9.782,1.434-9.782,2.387c0,0.975,3.971,1.847,10.21,2.428
						c-0.294-1.348-0.46-2.743-0.46-4.178C403.25,62.535,403.275,62.327,403.282,62.113z"/>
					<path fill="none" d="M403.282,62.113c-0.007,0.213-0.032,0.422-0.032,0.637c0,1.436,0.166,2.831,0.46,4.178
						c4.95,0.46,11.327,0.738,18.29,0.738c7.71,0,14.699-0.341,19.83-0.893c0.272-1.299,0.42-2.644,0.42-4.023
						c0-0.162-0.021-0.319-0.024-0.48c-5.163-0.578-12.317-0.936-20.226-0.936C414.833,61.333,408.29,61.628,403.282,62.113z"/>
					<path fill="none" d="M404.511,69.597c2.774,7.387,9.883,12.653,18.239,12.653c8.398,0,15.535-5.319,18.28-12.765
						c-5.659,0.435-12.141,0.681-19.03,0.681C415.728,70.167,409.794,69.962,404.511,69.597z"/>
					<path fill="none" d="M441.972,59.591c-1.513-9.264-9.53-16.341-19.222-16.341c-9.65,0-17.643,7.017-19.203,16.223
						c5.522-0.408,11.795-0.639,18.453-0.639C429.276,58.833,436.093,59.11,441.972,59.591z"/>
					<linearGradient id="SVGID_29_" gradientUnits="userSpaceOnUse" x1="382" y1="64.8193" x2="462" y2="64.8193">
						<stop  offset="0" style="stop-color:#FEE62A"/>
						<stop  offset="0.1378" style="stop-color:#FDD82B"/>
						<stop  offset="0.3964" style="stop-color:#F9B42C"/>
						<stop  offset="0.7453" style="stop-color:#F37B2F"/>
						<stop  offset="0.9911" style="stop-color:#EF4E31"/>
					</linearGradient>
					<path fill="url(#SVGID_29_)" d="M441.972,59.591c0.143,0.875,0.231,1.768,0.254,2.679c5.113,0.572,8.274,1.36,8.274,2.23
						c0,0.892-3.326,1.698-8.67,2.273c-5.131,0.552-12.12,0.893-19.83,0.893c-6.963,0-13.34-0.278-18.29-0.738
						c-6.239-0.581-10.21-1.453-10.21-2.428c0-0.953,3.791-1.806,9.782-2.387c0.029-0.897,0.118-1.778,0.265-2.641
						C390.746,60.417,382,62.313,382,64.5c0,2.241,9.185,4.178,22.511,5.097c5.283,0.365,11.217,0.569,17.489,0.569
						c6.89,0,13.371-0.247,19.03-0.681C453.519,68.526,462,66.654,462,64.5C462,62.401,453.939,60.57,441.972,59.591z"/>
				</g>
			</g>
		</g>
		<path clip-path="url(#SVGID_5_)" fill="#F9FAFD" d="M393.67,251.333c-16.408,1-46.642-3-53.604-35.127
			c-3.379-15.591-4.457-32.372-12.875-46.011c-4.081-6.61-9.624-11.907-15.902-15.894C271.452,129,228.667,175,179.333,148.333
			c-73.424-39.688-44.667-128-186.724-152v566.871c39.834-25.3,13.344-75.494,53.179-100.794
			c39.833-25.299,66.324,24.896,106.158-0.403c39.834-25.3,13.345-75.494,53.18-100.794c39.836-25.301,66.327,24.894,106.163-0.407
			c14.339-9.106,21.372-23.853,24.867-41.089c3.167-15.617,4.17-26.225,14.671-38.05c17.168-19.334,43.007-17.733,43.755-18.5
			C395.666,262.056,396.008,251.19,393.67,251.333z"/>
		<g clip-path="url(#SVGID_5_)">
			<text transform="matrix(1 0 0 1 35.6675 235.5923)" fill="#300152" font-family="'Montserrat-Black'" font-size="21.3006">GRADIENT SPACE</text>
			<text transform="matrix(1 0 0 1 35.668 259.3535)" fill="#6E6E6D" font-family="'Montserrat-Medium'" font-size="20.0005">WITH A ROCKET</text>
			<rect x="38.191" y="278.17" fill="none" width="201.143" height="32.662"/>
			<text transform="matrix(1 0 0 1 38.1919 283.2266)"><tspan x="0" y="0" fill="#6E6E6D" font-family="'Montserrat-Regular'" font-size="7.1202">Lorem</tspan><tspan x="19.104" y="0" fill="#6E6E6D" font-family="'Montserrat-Regular'" font-size="7.1202"> </tspan><tspan x="21.195" y="0" fill="#6E6E6D" font-family="'Montserrat-Regular'" font-size="7.1202">ipsum</tspan><tspan x="39.594" y="0" fill="#6E6E6D" font-family="'Montserrat-Regular'" font-size="7.1202"> </tspan><tspan x="41.686" y="0" fill="#6E6E6D" font-family="'Montserrat-Regular'" font-size="7.1202">dolor</tspan><tspan x="57.528" y="0" fill="#6E6E6D" font-family="'Montserrat-Regular'" font-size="7.1202"> </tspan><tspan x="59.619" y="0" fill="#6E6E6D" font-family="'Montserrat-Regular'" font-size="7.1202">sit</tspan><tspan x="66.461" y="0" fill="#6E6E6D" font-family="'Montserrat-Regular'" font-size="7.1202"> </tspan><tspan x="68.553" y="0" fill="#6E6E6D" font-family="'Montserrat-Regular'" font-size="7.1202">amet,</tspan><tspan x="85.321" y="0" fill="#6E6E6D" font-family="'Montserrat-Regular'" font-size="7.1202"> </tspan><tspan x="87.413" y="0" fill="#6E6E6D" font-family="'Montserrat-Regular'" font-size="7.1202">consectetuer</tspan><tspan x="126.141" y="0" fill="#6E6E6D" font-family="'Montserrat-Regular'" font-size="7.1202"> </tspan><tspan x="128.232" y="0" fill="#6E6E6D" font-family="'Montserrat-Regular'" font-size="7.1202">adipiscing</tspan><tspan x="158.671" y="0" fill="#6E6E6D" font-family="'Montserrat-Regular'" font-size="7.1202"> </tspan><tspan x="160.762" y="0" fill="#6E6E6D" font-family="'Montserrat-Regular'" font-size="7.1202">elit,</tspan><tspan x="171.506" y="0" fill="#6E6E6D" font-family="'Montserrat-Regular'" font-size="7.1202"> </tspan><tspan x="173.598" y="0" fill="#6E6E6D" font-family="'Montserrat-Regular'" font-size="7.1202">sed</tspan><tspan x="184.001" y="0" fill="#6E6E6D" font-family="'Montserrat-Regular'" font-size="7.1202"> </tspan><tspan x="186.092" y="0" fill="#6E6E6D" font-family="'Montserrat-Regular'" font-size="7.1202">diam </tspan><tspan x="0" y="10.68" fill="#6E6E6D" font-family="'Montserrat-Regular'" font-size="7.1202">nonummy</tspan><tspan x="30.966" y="10.68" fill="#6E6E6D" font-family="'Montserrat-Regular'" font-size="7.1202"> </tspan><tspan x="32.503" y="10.68" fill="#6E6E6D" font-family="'Montserrat-Regular'" font-size="7.1202">nibh</tspan><tspan x="46.124" y="10.68" fill="#6E6E6D" font-family="'Montserrat-Regular'" font-size="7.1202"> </tspan><tspan x="47.661" y="10.68" fill="#6E6E6D" font-family="'Montserrat-Regular'" font-size="7.1202">euismod</tspan><tspan x="73.5" y="10.68" fill="#6E6E6D" font-family="'Montserrat-Regular'" font-size="7.1202"> </tspan><tspan x="75.037" y="10.68" fill="#6E6E6D" font-family="'Montserrat-Regular'" font-size="7.1202">tincidunt</tspan><tspan x="102.115" y="10.68" fill="#6E6E6D" font-family="'Montserrat-Regular'" font-size="7.1202"> </tspan><tspan x="103.651" y="10.68" fill="#6E6E6D" font-family="'Montserrat-Regular'" font-size="7.1202">ut</tspan><tspan x="109.932" y="10.68" fill="#6E6E6D" font-family="'Montserrat-Regular'" font-size="7.1202"> </tspan><tspan x="111.469" y="10.68" fill="#6E6E6D" font-family="'Montserrat-Regular'" font-size="7.1202">laoreet</tspan><tspan x="132.31" y="10.68" fill="#6E6E6D" font-family="'Montserrat-Regular'" font-size="7.1202"> </tspan><tspan x="133.847" y="10.68" fill="#6E6E6D" font-family="'Montserrat-Regular'" font-size="7.1202">dolore</tspan><tspan x="153.256" y="10.68" fill="#6E6E6D" font-family="'Montserrat-Regular'" font-size="7.1202"> </tspan><tspan x="154.793" y="10.68" fill="#6E6E6D" font-family="'Montserrat-Regular'" font-size="7.1202">magna</tspan><tspan x="175.528" y="10.68" fill="#6E6E6D" font-family="'Montserrat-Regular'" font-size="7.1202"> </tspan><tspan x="177.064" y="10.68" fill="#6E6E6D" font-family="'Montserrat-Regular'" font-size="7.1202">aliquam </tspan><tspan x="0" y="21.361" fill="#6E6E6D" font-family="'Montserrat-Regular'" font-size="7.1202">erat volutpat. </tspan></text>
		</g>
		<g clip-path="url(#SVGID_5_)">
			<g>
				<linearGradient id="SVGID_30_" gradientUnits="userSpaceOnUse" x1="329.4561" y1="258.3291" x2="447.1107" y2="258.3291">
					<stop  offset="0" style="stop-color:#FEE62A"/>
					<stop  offset="0.1378" style="stop-color:#FDD82B"/>
					<stop  offset="0.3964" style="stop-color:#F9B42C"/>
					<stop  offset="0.7453" style="stop-color:#F37B2F"/>
					<stop  offset="0.9911" style="stop-color:#EF4E31"/>
				</linearGradient>
				<path fill="url(#SVGID_30_)" d="M446.044,244.17c-22.134-3.139-44.683-35.668-89.772-6.346
					c11.042-3.248,25.331-4.546,36.187,2.784c-6.402-0.278-25.19-5.01-62.999,17.72h-0.004l0.002,0.001l-0.002,0.001h0.004
					c37.809,22.73,56.597,17.999,62.999,17.721c-10.856,7.33-25.146,6.031-36.187,2.783c45.089,29.322,67.638-3.206,89.772-6.346
					V244.17z"/>
				<linearGradient id="SVGID_31_" gradientUnits="userSpaceOnUse" x1="373.252" y1="258.335" x2="446.71" y2="258.335">
					<stop  offset="0" style="stop-color:#F5E55E"/>
					<stop  offset="1" style="stop-color:#DA9231"/>
				</linearGradient>
				<path fill="url(#SVGID_31_)" d="M373.252,257.588c0,0,28.672-19.97,72.792-13.418v28.318
					C446.044,272.488,406.099,280.414,373.252,257.588z"/>
				<linearGradient id="SVGID_32_" gradientUnits="userSpaceOnUse" x1="393.1084" y1="258.335" x2="446.5283" y2="258.335">
					<stop  offset="0" style="stop-color:#F5EA91"/>
					<stop  offset="1" style="stop-color:#DA9231"/>
				</linearGradient>
				<path fill="url(#SVGID_32_)" d="M393.108,257.843c0,0,20.851-13.169,52.936-8.849v18.674
					C446.044,267.668,416.995,272.895,393.108,257.843z"/>
			</g>
			<g>
				<path fill="#F9FAFD" d="M587.142,257.563L587.142,257.563l-0.745,0.02l0.745-0.037l0,0
					c-38.377-33.321-92.439-41.737-139.129-21.658l-8.313,3.575c-1.651,2.718-5.225,9.415-5.191,18.667
					c0.033,9.262,3.662,15.939,5.335,18.645c2.779,1.17,5.56,2.341,8.34,3.511C495.025,300.006,549.021,291.177,587.142,257.563z"/>
				<g>
					<path fill="#1285A2" d="M450.004,235.073c-0.663,0.272-1.33,0.53-1.99,0.814l-8.313,3.575
						c-1.652,2.718-5.226,9.416-5.192,18.667c0.033,9.262,3.662,15.939,5.335,18.645c2.779,1.17,5.56,2.341,8.34,3.511
						c0.662,0.279,1.331,0.531,1.996,0.8c-2.284-3.881-6.275-12.012-6.314-22.993C443.826,247.122,447.75,238.97,450.004,235.073z"
						/>
				</g>
				<g>
					<path fill="#5A9CD4" d="M559.704,257.653c0.026,6.851,1.873,12.529,3.763,16.56c8.371-4.611,16.32-10.166,23.675-16.65
						l-0.745,0.02l0.745-0.037l0,0c-7.405-6.43-15.397-11.923-23.804-16.471c-1.85,4.025-3.632,9.656-3.634,16.423
						C559.704,257.549,559.703,257.602,559.704,257.653z"/>
				</g>
				<g>
					<g>
						<path fill="#DCDDE0" d="M587.142,257.563l-0.745,0.02l0.745-0.037l0,0c-0.113-0.098-0.228-0.193-0.341-0.291l-152.286,0.583
							c-0.001,0.099-0.006,0.193-0.006,0.292c0.033,9.262,3.662,15.939,5.335,18.645c2.779,1.17,5.56,2.341,8.34,3.511
							C495.025,300.006,549.021,291.177,587.142,257.563z"/>
					</g>
					<g>
						<g>
							<path fill="#CACBCE" d="M587.232,257.505l-0.744,0.02l0.744-0.037l0,0c-0.112-0.098-0.228-0.193-0.341-0.291
								c-13.912,8.135-38.545,20.183-71.628,24.557c-32.963,4.358-59.794-0.821-75.329-5.037c2.78,1.17,5.561,2.341,8.34,3.511
								C495.116,299.948,549.112,291.119,587.232,257.505z"/>
						</g>
					</g>
				</g>
				<g>
					<g>
						<g>
							<path fill="#281C4B" d="M495.206,258.387c-0.027-7.041,5.68-12.791,12.72-12.818c7.041-0.027,12.791,5.679,12.817,12.72
								c0.027,7.04-5.679,12.79-12.72,12.817C500.983,271.133,495.232,265.427,495.206,258.387z"/>
							<path fill="#1285A2" d="M519.225,258.295c0.023,6.213-4.994,11.269-11.207,11.293c-6.213,0.023-11.269-4.994-11.293-11.207
								c-0.023-6.214,4.994-11.27,11.207-11.293C514.145,247.064,519.201,252.081,519.225,258.295 M522.262,258.282
								c-0.029-7.877-6.464-14.262-14.342-14.232s-14.263,6.464-14.232,14.342c0.03,7.878,6.464,14.263,14.342,14.232
								S522.292,266.161,522.262,258.282L522.262,258.282z"/>
						</g>
					</g>
					
						<linearGradient id="SVGID_33_" gradientUnits="userSpaceOnUse" x1="204.1069" y1="-1103.0225" x2="204.1069" y2="-1077.2646" gradientTransform="matrix(0.0068 0.9999 -0.9999 0.0068 -580.163 61.5921)">
						<stop  offset="0" style="stop-color:#FFFFFF"/>
						<stop  offset="0.7422" style="stop-color:#FFFFFF;stop-opacity:0"/>
					</linearGradient>
					<circle fill="url(#SVGID_33_)" cx="507.942" cy="258.288" r="8.098"/>
				</g>
				<g>
					<g>
						<g>
							<path fill="#281C4B" d="M528.9,258.96c-0.015-3.921,3.164-7.123,7.085-7.139c3.921-0.015,7.124,3.164,7.139,7.085
								s-3.163,7.123-7.084,7.139C532.118,266.06,528.916,262.882,528.9,258.96z"/>
							<path fill="#1285A2" d="M542.278,258.909c0.013,3.461-2.781,6.276-6.242,6.29c-3.46,0.013-6.276-2.781-6.289-6.242
								c-0.014-3.46,2.781-6.276,6.241-6.289C539.449,252.654,542.265,255.449,542.278,258.909 M543.97,258.902
								c-0.017-4.388-3.6-7.943-7.987-7.927c-4.388,0.017-7.944,3.601-7.928,7.988c0.018,4.388,3.601,7.943,7.988,7.927
								S543.986,263.291,543.97,258.902L543.97,258.902z"/>
						</g>
					</g>
					
						<linearGradient id="SVGID_34_" gradientUnits="userSpaceOnUse" x1="204.915" y1="-1123.895" x2="204.915" y2="-1109.5508" gradientTransform="matrix(0.0068 0.9999 -0.9999 0.0068 -580.163 61.5921)">
						<stop  offset="0" style="stop-color:#FFFFFF"/>
						<stop  offset="0.7422" style="stop-color:#FFFFFF;stop-opacity:0"/>
					</linearGradient>
					<circle fill="url(#SVGID_34_)" cx="535.994" cy="258.906" r="4.51"/>
				</g>
				<g>
					<g>
						<g>
							<path fill="#281C4B" d="M472.15,257.58c-0.015-3.922,3.164-7.124,7.085-7.139s7.124,3.164,7.139,7.084
								s-3.163,7.124-7.084,7.139C475.368,264.68,472.166,261.501,472.15,257.58z"/>
							<path fill="#1285A2" d="M485.528,257.528c0.013,3.461-2.781,6.276-6.242,6.29c-3.46,0.013-6.276-2.781-6.289-6.242
								c-0.014-3.46,2.781-6.276,6.241-6.289C482.699,251.273,485.515,254.068,485.528,257.528 M487.22,257.521
								c-0.017-4.387-3.6-7.943-7.987-7.926c-4.388,0.017-7.944,3.6-7.928,7.988c0.018,4.388,3.601,7.943,7.988,7.927
								S487.236,261.91,487.22,257.521L487.22,257.521z"/>
						</g>
					</g>
					
						<linearGradient id="SVGID_35_" gradientUnits="userSpaceOnUse" x1="203.1484" y1="-1067.1528" x2="203.1484" y2="-1052.8055" gradientTransform="matrix(0.0068 0.9999 -0.9999 0.0068 -580.163 61.5921)">
						<stop  offset="0" style="stop-color:#FFFFFF"/>
						<stop  offset="0.7422" style="stop-color:#FFFFFF;stop-opacity:0"/>
					</linearGradient>
					<circle fill="url(#SVGID_35_)" cx="479.244" cy="257.525" r="4.51"/>
				</g>
				<g>
					<g>
						<path fill="#5A9CD4" d="M452.947,233.859c5.172-1.826,11.009-3.59,17.462-5.077c7.578-1.746,14.586-2.781,20.807-3.376
							c-4.033-2.153-8.066-4.307-12.101-6.461c-9.682-5.17-20.916-6.633-31.6-4.115l-21.36,5.035L452.947,233.859z"/>
					</g>
				</g>
				<g>
					<g>
						<path fill="#DCDDE0" d="M454.362,233.171c4.418-1.56,9.404-3.067,14.917-4.337c6.475-1.491,12.46-2.375,17.774-2.884
							c-3.445-1.84-6.892-3.68-10.337-5.52c-8.271-4.417-17.868-5.666-26.994-3.515l-18.247,4.301L454.362,233.171z"/>
					</g>
				</g>
				<g>
					<g>
						<path fill="#5A9CD4" d="M451.794,281.393c5.14,1.912,10.947,3.772,17.375,5.366c7.548,1.872,14.537,3.023,20.747,3.722
							c-4.068,2.086-8.138,4.173-12.206,6.259c-9.767,5.008-21.024,6.284-31.664,3.588l-21.273-5.39L451.794,281.393z"/>
					</g>
				</g>
				<g>
					<g>
						<path fill="#DCDDE0" d="M453.971,282.478c4.58,1.704,9.754,3.361,15.479,4.781c6.726,1.668,12.952,2.693,18.484,3.315
							c-3.625,1.859-7.249,3.718-10.874,5.576c-8.701,4.462-18.731,5.599-28.21,3.197l-18.953-4.803L453.971,282.478z"/>
					</g>
				</g>
			</g>
		</g>
	</g>
</g>
<g id="Designed_by_Freepik" display="none">
	<g id="XMLID_62_" display="inline">
		<g id="XMLID_319_">
			<g id="XMLID_338_">
				<path id="XMLID_346_" fill="#FFFFFF" d="M385.104,464.306c-0.432,0.443-0.803,0.931-1.107,1.453l-0.466-0.241
					c-0.066-0.298-0.349-0.503-0.659-0.466c-0.33,0.038-0.567,0.339-0.528,0.669c0.039,0.331,0.339,0.568,0.67,0.529
					c0.065-0.008,0.127-0.026,0.184-0.052l0.451,0.233c-0.251,0.555-0.433,1.139-0.539,1.744l0.746,0.132
					c0.23-1.306,0.85-2.507,1.792-3.473L385.104,464.306z"/>
				<path id="XMLID_345_" fill="#FFFFFF" d="M390.592,462.004c-0.171,0-0.341,0.006-0.51,0.017l-0.073-0.626
					c0.188-0.149,0.296-0.39,0.266-0.645c-0.046-0.394-0.402-0.675-0.796-0.628c-0.393,0.046-0.674,0.402-0.628,0.795
					c0.03,0.254,0.189,0.461,0.405,0.563l0.073,0.625c-0.714,0.115-1.403,0.331-2.06,0.646l0.327,0.684
					c0.934-0.446,1.941-0.673,2.995-0.673c0.496,0,0.993,0.053,1.475,0.157l0.161-0.74
					C391.692,462.063,391.143,462.004,390.592,462.004z"/>
				<path id="XMLID_344_" fill="#FFFFFF" d="M397.194,464.551c0.331-0.041,0.566-0.342,0.525-0.673
					c-0.04-0.33-0.342-0.565-0.672-0.525c-0.31,0.038-0.536,0.304-0.53,0.609l-0.416,0.362c-0.418-0.43-0.89-0.813-1.408-1.139
					l-0.403,0.642c1.134,0.714,2.021,1.726,2.563,2.925l0.69-0.313c-0.251-0.554-0.567-1.072-0.942-1.545l0.402-0.351
					C397.064,464.556,397.129,464.559,397.194,464.551z"/>
				<path id="XMLID_343_" fill="#FFFFFF" d="M390.044,472.212c-0.386,0.023-0.774,0.034-1.157,0.034
					c-0.88,0-1.732-0.061-2.479-0.179c-0.39-0.062-0.846-0.155-1.27-0.292c1.046,1.861,3.069,3.125,5.388,3.125
					c2.855,0,5.263-1.916,5.95-4.504c-0.682,0.449-1.506,0.825-2.459,1.123C392.839,471.887,391.463,472.127,390.044,472.212z"/>
				<path id="XMLID_339_" fill="#FFFFFF" d="M390.592,463.52c-3.353,0-6.08,2.666-6.08,5.943c0,0.426,0.047,0.85,0.138,1.262
					c0.674,0.482,2.706,0.89,5.348,0.73c2.879-0.173,5.297-0.957,6.672-2.158c-0.006-0.195-0.021-0.39-0.045-0.582
					C396.243,465.753,393.65,463.52,390.592,463.52z M388.433,470.034c-1.021,0-1.85-0.829-1.85-1.85c0-1.02,0.829-1.85,1.85-1.85
					c1.02,0,1.85,0.83,1.85,1.85C390.282,469.205,389.452,470.034,388.433,470.034z M393.17,469.126c-0.75,0-1.36-0.61-1.36-1.36
					s0.61-1.36,1.36-1.36s1.36,0.61,1.36,1.36S393.92,469.126,393.17,469.126z"/>
			</g>
			<path id="XMLID_336_" fill="#FFFFFF" d="M406.595,465.387c-0.294-0.116-0.805-0.309-1.382-0.237
				c-0.551,0.068-0.844,0.341-0.844,1.007v0.866h2.228v1.717h-2.228v5.455h-1.932v-5.455h-1.34v-1.717h1.34v-0.889
				c0-1.68,0.896-2.783,2.568-2.783c0.643,0,1.157,0.122,1.59,0.309L406.595,465.387z"/>
			<path id="XMLID_334_" fill="#FFFFFF" d="M411.298,468.719c-0.177-0.029-0.357-0.046-0.526-0.046c-0.896,0-1.51,0.548-1.51,1.613
				v3.908h-1.932v-7.172h1.872v0.784c0.452-0.674,1.141-0.977,2.021-0.977c0.414,0,0.848,0.127,1.094,0.336L411.298,468.719z"/>
			<path id="XMLID_331_" fill="#FFFFFF" d="M418.965,470.597c0,0.223-0.015,0.489-0.037,0.651h-5.084
				c0.207,1.036,0.933,1.488,1.843,1.488c0.621,0,1.295-0.252,1.813-0.688l1.133,1.243c-0.814,0.748-1.851,1.088-3.057,1.088
				c-2.198,0-3.723-1.495-3.723-3.752c0-2.258,1.48-3.797,3.626-3.797C417.544,466.83,418.958,468.361,418.965,470.597z
				 M413.851,469.931h3.175c-0.177-0.918-0.732-1.436-1.562-1.436C414.554,468.495,414.021,469.043,413.851,469.931z"/>
			<path id="XMLID_328_" fill="#FFFFFF" d="M426.618,470.597c0,0.223-0.015,0.489-0.037,0.651h-5.085
				c0.208,1.036,0.933,1.488,1.844,1.488c0.621,0,1.295-0.252,1.813-0.688l1.132,1.243c-0.814,0.748-1.851,1.088-3.057,1.088
				c-2.198,0-3.723-1.495-3.723-3.752c0-2.258,1.48-3.797,3.626-3.797C425.197,466.83,426.611,468.361,426.618,470.597z
				 M421.504,469.931h3.176c-0.178-0.918-0.733-1.436-1.563-1.436C422.207,468.495,421.674,469.043,421.504,469.931z"/>
			<path id="XMLID_325_" fill="#FFFFFF" d="M434.964,470.604c0,2.153-1.495,3.774-3.471,3.774c-0.963,0-1.644-0.377-2.109-0.933
				v3.708h-1.925v-10.132h1.888v0.792c0.466-0.585,1.154-0.984,2.139-0.984C433.469,466.83,434.964,468.45,434.964,470.604z
				 M429.287,470.604c0,1.132,0.747,1.976,1.843,1.976c1.14,0,1.851-0.881,1.851-1.976c0-1.096-0.711-1.977-1.851-1.977
				C430.034,468.628,429.287,469.472,429.287,470.604z"/>
			<path id="XMLID_322_" fill="#FFFFFF" d="M438.067,464.676c0,0.695-0.54,1.229-1.236,1.229c-0.695,0-1.229-0.533-1.229-1.229
				s0.533-1.243,1.229-1.243C437.527,463.433,438.067,463.98,438.067,464.676z M437.809,474.194h-1.932v-7.172h1.932V474.194z"/>
			<path id="XMLID_320_" fill="#FFFFFF" d="M441.032,469.575l2.701-2.553h2.369l-3.479,3.375l3.501,3.797h-2.376l-2.716-2.901v2.901
				h-1.932v-10.658h1.932V469.575z"/>
		</g>
		<g id="XMLID_63_">
			<path id="XMLID_88_" fill="#FFFFFF" d="M309.413,474.129v-1.055c-0.527,0.718-1.392,1.23-2.388,1.23
				c-1.846,0-3.149-1.406-3.149-3.706c0-2.256,1.289-3.721,3.149-3.721c0.952,0,1.816,0.469,2.388,1.245v-3.764h1.099v9.77H309.413z
				 M309.413,472.21v-3.208c-0.396-0.615-1.245-1.143-2.124-1.143c-1.421,0-2.271,1.172-2.271,2.739s0.85,2.725,2.271,2.725
				C308.167,473.323,309.017,472.825,309.413,472.21z"/>
			<path id="XMLID_85_" fill="#FFFFFF" d="M311.932,470.584c0-2.051,1.464-3.706,3.486-3.706c2.139,0,3.398,1.671,3.398,3.794v0.279
				h-5.728c0.088,1.332,1.025,2.445,2.549,2.445c0.806,0,1.626-0.322,2.183-0.894l0.527,0.718c-0.703,0.703-1.655,1.084-2.813,1.084
				C313.44,474.305,311.932,472.796,311.932,470.584z M315.403,467.787c-1.509,0-2.256,1.273-2.314,2.357h4.644
				C317.718,469.09,317.015,467.787,315.403,467.787z"/>
			<path id="XMLID_83_" fill="#FFFFFF" d="M319.607,473.191l0.571-0.791c0.469,0.542,1.362,1.011,2.329,1.011
				c1.084,0,1.67-0.513,1.67-1.216c0-1.713-4.38-0.659-4.38-3.281c0-1.099,0.952-2.036,2.637-2.036c1.201,0,2.051,0.454,2.622,1.026
				l-0.513,0.762c-0.424-0.514-1.201-0.894-2.109-0.894c-0.967,0-1.567,0.483-1.567,1.112c0,1.553,4.379,0.527,4.379,3.281
				c0,1.187-0.952,2.139-2.783,2.139C321.306,474.305,320.325,473.953,319.607,473.191z"/>
			<path id="XMLID_80_" fill="#FFFFFF" d="M326.477,465.312c0-0.41,0.337-0.747,0.732-0.747c0.41,0,0.747,0.337,0.747,0.747
				s-0.336,0.731-0.747,0.731C326.814,466.043,326.477,465.722,326.477,465.312z M326.667,474.129v-7.074h1.099v7.074H326.667z"/>
			<path id="XMLID_77_" fill="#FFFFFF" d="M329.582,475.945l0.557-0.82c0.586,0.703,1.289,0.967,2.3,0.967
				c1.172,0,2.27-0.571,2.27-2.124v-1.011c-0.512,0.718-1.376,1.26-2.373,1.26c-1.845,0-3.149-1.377-3.149-3.662
				c0-2.271,1.289-3.677,3.149-3.677c0.952,0,1.802,0.469,2.373,1.245v-1.068h1.099v6.869c0,2.344-1.641,3.076-3.369,3.076
				C331.237,477,330.417,476.766,329.582,475.945z M334.708,472.093v-3.091c-0.381-0.615-1.23-1.143-2.109-1.143
				c-1.421,0-2.271,1.128-2.271,2.695c0,1.553,0.849,2.695,2.271,2.695C333.478,473.25,334.328,472.708,334.708,472.093z"/>
			<path id="XMLID_75_" fill="#FFFFFF" d="M342.413,474.129V469.5c0-1.244-0.629-1.641-1.582-1.641c-0.865,0-1.685,0.527-2.095,1.1
				v5.17h-1.099v-7.074h1.099v1.025c0.498-0.586,1.464-1.202,2.519-1.202c1.479,0,2.256,0.747,2.256,2.285v4.966H342.413z"/>
			<path id="XMLID_72_" fill="#FFFFFF" d="M344.933,470.584c0-2.051,1.465-3.706,3.486-3.706c2.138,0,3.398,1.671,3.398,3.794v0.279
				h-5.728c0.088,1.332,1.025,2.445,2.549,2.445c0.806,0,1.625-0.322,2.183-0.894l0.527,0.718c-0.703,0.703-1.655,1.084-2.813,1.084
				C346.441,474.305,344.933,472.796,344.933,470.584z M348.404,467.787c-1.509,0-2.256,1.273-2.314,2.357h4.643
				C350.718,469.09,350.015,467.787,348.404,467.787z"/>
			<path id="XMLID_69_" fill="#FFFFFF" d="M358.35,474.129v-1.055c-0.527,0.718-1.392,1.23-2.388,1.23
				c-1.845,0-3.149-1.406-3.149-3.706c0-2.256,1.289-3.721,3.149-3.721c0.952,0,1.817,0.469,2.388,1.245v-3.764h1.099v9.77H358.35z
				 M358.35,472.21v-3.208c-0.396-0.615-1.245-1.143-2.124-1.143c-1.421,0-2.271,1.172-2.271,2.739s0.85,2.725,2.271,2.725
				C357.105,473.323,357.954,472.825,358.35,472.21z"/>
			<path id="XMLID_66_" fill="#FFFFFF" d="M364.692,474.129v-9.77h1.099v3.764c0.572-0.776,1.421-1.245,2.388-1.245
				c1.846,0,3.149,1.465,3.149,3.721c0,2.3-1.304,3.706-3.149,3.706c-0.996,0-1.86-0.513-2.388-1.23v1.055H364.692z M367.9,473.323
				c1.436,0,2.285-1.157,2.285-2.725s-0.85-2.739-2.285-2.739c-0.864,0-1.729,0.527-2.109,1.143v3.208
				C366.171,472.825,367.036,473.323,367.9,473.323z"/>
			<path id="XMLID_64_" fill="#FFFFFF" d="M372.528,475.901c0.161,0.073,0.425,0.117,0.601,0.117c0.483,0,0.805-0.161,1.055-0.747
				l0.468-1.069l-2.959-7.147h1.187l2.358,5.8l2.344-5.8h1.201l-3.545,8.51c-0.425,1.025-1.143,1.421-2.08,1.436
				c-0.234,0-0.601-0.044-0.805-0.103L372.528,475.901z"/>
		</g>
	</g>
</g>
</svg>
