<?xml version="1.0" encoding="utf-8"?>
<!-- Generator: Adobe Illustrator 16.0.0, SVG Export Plug-In . SVG Version: 6.00 Build 0)  -->
<!DOCTYPE svg PUBLIC "-//W3C//DTD SVG 1.1//EN" "http://www.w3.org/Graphics/SVG/1.1/DTD/svg11.dtd">
<svg version="1.1" xmlns="http://www.w3.org/2000/svg" xmlns:xlink="http://www.w3.org/1999/xlink" x="0px" y="0px"
	 width="257.686px" height="88.082px" viewBox="0 0 257.686 88.082" enable-background="new 0 0 257.686 88.082"
	 xml:space="preserve">
<g id="Layer_11">
	<g>
		<linearGradient id="SVGID_1_" gradientUnits="userSpaceOnUse" x1="-697.0303" y1="453.4941" x2="-579.0117" y2="453.4941">
			<stop  offset="0" style="stop-color:#4CD6F0"/>
			<stop  offset="1" style="stop-color:#4CD6F0;stop-opacity:0"/>
		</linearGradient>
		<path fill="url(#SVGID_1_)" d="M-691.524,448.229l112.303,5.045c0.121,0.006,0.215,0.108,0.209,0.229
			c-0.005,0.114-0.098,0.204-0.209,0.209l-112.303,5.045c-2.907,0.131-5.37-2.12-5.5-5.027c-0.131-2.907,2.121-5.37,5.028-5.501
			C-691.841,448.223-691.677,448.224-691.524,448.229z"/>
		<linearGradient id="SVGID_2_" gradientUnits="userSpaceOnUse" x1="-700.6968" y1="90.8271" x2="-582.6787" y2="90.8271">
			<stop  offset="0" style="stop-color:#4CD6F0"/>
			<stop  offset="1" style="stop-color:#4CD6F0;stop-opacity:0"/>
		</linearGradient>
		<path fill="url(#SVGID_2_)" d="M-695.191,85.563l112.303,5.045c0.121,0.005,0.215,0.108,0.209,0.229
			c-0.005,0.114-0.098,0.204-0.209,0.21l-112.303,5.044c-2.907,0.131-5.37-2.12-5.5-5.027c-0.131-2.908,2.12-5.37,5.027-5.501
			C-695.508,85.556-695.344,85.557-695.191,85.563z"/>
		<linearGradient id="SVGID_3_" gradientUnits="userSpaceOnUse" x1="-234.0308" y1="23.4941" x2="-116.0117" y2="23.4941">
			<stop  offset="0" style="stop-color:#4CD6F0"/>
			<stop  offset="1" style="stop-color:#4CD6F0;stop-opacity:0"/>
		</linearGradient>
		<path fill="url(#SVGID_3_)" d="M-228.524,18.229l112.303,5.045c0.121,0.006,0.215,0.108,0.21,0.229
			c-0.006,0.114-0.098,0.204-0.21,0.209l-112.303,5.045c-2.907,0.13-5.37-2.121-5.501-5.028c-0.13-2.907,2.121-5.37,5.028-5.501
			C-228.842,18.223-228.678,18.223-228.524,18.229z"/>
		<linearGradient id="SVGID_4_" gradientUnits="userSpaceOnUse" x1="-228.0308" y1="251.1611" x2="-110.0117" y2="251.1611">
			<stop  offset="0" style="stop-color:#4CD6F0"/>
			<stop  offset="1" style="stop-color:#4CD6F0;stop-opacity:0"/>
		</linearGradient>
		<path fill="url(#SVGID_4_)" d="M-222.524,245.896l112.303,5.045c0.121,0.005,0.215,0.107,0.21,0.229
			c-0.006,0.113-0.098,0.204-0.21,0.209l-112.303,5.045c-2.907,0.131-5.37-2.12-5.501-5.027c-0.13-2.908,2.121-5.37,5.028-5.501
			C-222.842,245.89-222.678,245.89-222.524,245.896z"/>
		<linearGradient id="SVGID_5_" gradientUnits="userSpaceOnUse" x1="-423.0308" y1="151.9941" x2="-305.0117" y2="151.9941">
			<stop  offset="0" style="stop-color:#4CD6F0"/>
			<stop  offset="1" style="stop-color:#4CD6F0;stop-opacity:0"/>
		</linearGradient>
		<path fill="url(#SVGID_5_)" d="M-417.524,146.729l112.303,5.045c0.121,0.005,0.215,0.108,0.21,0.229
			c-0.006,0.114-0.098,0.204-0.21,0.209l-112.303,5.045c-2.907,0.131-5.37-2.12-5.501-5.027c-0.13-2.908,2.121-5.37,5.028-5.501
			C-417.842,146.723-417.678,146.723-417.524,146.729z"/>
	</g>
</g>
<g id="Layer_10">
	<g>
		<g>
			<g>
				<path fill="#8DE1FD" d="M-600.187,22.321c-9.153,5.522-18.807,6.355-21.52,1.858s2.526-12.648,11.679-18.17
					s18.807-6.355,21.52-1.858C-585.795,8.648-591.034,16.799-600.187,22.321z M-609.612,6.699
					c-8.379,5.055-13.175,12.517-10.691,16.634s11.322,3.354,19.701-1.701c8.379-5.055,13.176-12.518,10.692-16.635
					C-592.395,0.88-601.232,1.644-609.612,6.699z"/>
			</g>
			<g>
				<path fill="#8DE1FD" d="M-597.284,27.133c-14.554,8.78-29.903,10.106-34.217,2.955s4.016-20.111,18.57-28.891
					c14.553-8.78,29.904-10.106,34.218-2.956S-582.73,18.354-597.284,27.133z M-612.27,2.293
					c-13.324,8.038-20.95,19.903-17.001,26.45c3.95,6.547,18.002,5.333,31.326-2.705c13.324-8.039,20.951-19.904,17.001-26.451
					C-584.893-6.959-598.946-5.746-612.27,2.293z"/>
			</g>
			<g>
				<path fill="#8DE1FD" d="M-594.38,31.946c-19.955,12.039-41,13.856-46.916,4.052c-5.915-9.805,5.507-27.575,25.461-39.613
					c19.955-12.039,41.001-13.856,46.916-4.052S-574.425,19.907-594.38,31.946z M-614.928-2.113
					c-18.268,11.021-28.725,27.29-23.31,36.266c5.415,8.976,24.683,7.312,42.951-3.709c18.269-11.021,28.726-27.291,23.311-36.266
					C-577.392-14.799-596.66-13.134-614.928-2.113z"/>
			</g>
			<g>
				<path fill="#8DE1FD" d="M-591.477,36.758c-25.355,15.297-52.098,17.606-59.614,5.148c-7.516-12.458,6.998-35.038,32.353-50.335
					c25.356-15.297,52.099-17.607,59.615-5.149C-551.607-1.119-566.122,21.461-591.477,36.758z M-617.586-6.519
					c-23.212,14.004-36.499,34.676-29.618,46.081c6.881,11.406,31.363,9.292,54.576-4.713c23.212-14.004,36.5-34.676,29.619-46.082
					S-594.374-20.523-617.586-6.519z"/>
			</g>
			<g>
				<path fill="#8DE1FD" d="M-588.574,41.571c-30.756,18.555-63.195,21.357-72.312,6.245c-9.117-15.111,8.488-42.501,39.244-61.057
					c30.756-18.555,63.196-21.357,72.313-6.245C-540.212-4.375-557.817,23.016-588.574,41.571z M-620.244-10.925
					c-28.157,16.987-44.274,42.063-35.928,55.897c8.346,13.834,38.044,11.27,66.201-5.717
					c28.157-16.987,44.275-42.063,35.929-55.897C-562.389-30.477-592.087-27.912-620.244-10.925z"/>
			</g>
		</g>
		<g>
			<g>
				<path fill="#8DE1FD" d="M-163.692,180.798c-9.152,5.522-18.806,6.355-21.52,1.858c-2.713-4.497,2.526-12.648,11.679-18.17
					c9.153-5.522,18.807-6.356,21.52-1.859C-149.3,167.125-154.539,175.276-163.692,180.798z M-173.117,165.175
					c-8.379,5.055-13.176,12.518-10.691,16.634c2.483,4.117,11.321,3.354,19.7-1.701c8.38-5.055,13.177-12.518,10.692-16.635
					C-155.899,159.357-164.737,160.12-173.117,165.175z"/>
			</g>
			<g>
				<path fill="#8DE1FD" d="M-160.789,185.61c-14.554,8.78-29.903,10.105-34.217,2.955c-4.314-7.15,4.016-20.111,18.569-28.891
					s29.904-10.106,34.218-2.956C-137.904,163.869-146.235,176.83-160.789,185.61z M-175.775,160.77
					c-13.323,8.038-20.95,19.904-17.001,26.45c3.95,6.546,18.003,5.333,31.326-2.705c13.324-8.039,20.951-19.904,17.002-26.451
					C-148.398,151.518-162.451,152.731-175.775,160.77z"/>
			</g>
			<g>
				<path fill="#8DE1FD" d="M-157.886,190.423c-19.954,12.039-41,13.855-46.915,4.051s5.507-27.575,25.461-39.613
					c19.955-12.039,41.001-13.856,46.916-4.052C-126.509,160.614-137.931,178.384-157.886,190.423z M-178.434,156.364
					c-18.268,11.021-28.725,27.29-23.31,36.266c5.415,8.976,24.683,7.312,42.951-3.709c18.269-11.021,28.726-27.291,23.311-36.267
					C-140.896,143.678-160.164,145.342-178.434,156.364z"/>
			</g>
			<g>
				<path fill="#8DE1FD" d="M-154.982,195.235c-25.354,15.296-52.098,17.606-59.613,5.148c-7.517-12.458,6.997-35.038,32.353-50.335
					s52.099-17.607,59.614-5.149C-115.112,157.358-129.627,179.938-154.982,195.235z M-181.092,151.958
					c-23.212,14.004-36.499,34.676-29.618,46.081s31.363,9.291,54.576-4.713c23.212-14.004,36.5-34.676,29.619-46.082
					S-157.879,137.954-181.092,151.958z"/>
			</g>
			<g>
				<path fill="#8DE1FD" d="M-152.079,200.048c-30.756,18.555-63.194,21.356-72.312,6.245c-9.117-15.112,8.488-42.502,39.244-61.057
					c30.757-18.556,63.195-21.357,72.313-6.246C-103.717,154.103-121.322,181.493-152.079,200.048z M-183.749,147.552
					c-28.157,16.987-44.274,42.062-35.928,55.896c8.346,13.835,38.044,11.271,66.201-5.717s44.274-42.063,35.928-55.897
					S-155.592,130.565-183.749,147.552z"/>
			</g>
		</g>
	</g>
</g>
<g id="Layer_9">
	<g>
		<g>
			<linearGradient id="SVGID_6_" gradientUnits="userSpaceOnUse" x1="-478.9072" y1="36.0029" x2="-443.2086" y2="73.2708">
				<stop  offset="0.0081" style="stop-color:#FFFFFF"/>
				<stop  offset="1" style="stop-color:#FFFFFF;stop-opacity:0"/>
			</linearGradient>
			<circle fill="url(#SVGID_6_)" cx="-463.552" cy="52.033" r="24.192"/>
			<g>
				<g>
					<linearGradient id="SVGID_7_" gradientUnits="userSpaceOnUse" x1="-475.7568" y1="39.1006" x2="-446.956" y2="69.1675">
						<stop  offset="0" style="stop-color:#61C6F2"/>
						<stop  offset="0.167" style="stop-color:#58BBEB"/>
						<stop  offset="0.4572" style="stop-color:#409FDA"/>
						<stop  offset="0.834" style="stop-color:#1971BE"/>
						<stop  offset="0.8936" style="stop-color:#1269B9"/>
					</linearGradient>
					<circle fill="url(#SVGID_7_)" cx="-463.369" cy="52.033" r="19.518"/>
					<g opacity="0.53">
						<path fill="#5A9CD4" d="M-456.468,31.901c0.84,3.336-0.586,7.124-3.418,9.078c-2.179,1.504-5.058,2.001-6.814,3.982
							c-1.286,1.451-1.73,3.445-2.086,5.351c-0.356,1.907-0.702,3.899-1.855,5.458c-1.154,1.559-3.397,2.506-5.089,1.557
							c-1.447-0.813-1.965-2.653-2-4.312s0.27-3.348-0.111-4.963c-0.284-1.203-0.932-2.281-1.521-3.367
							c-0.59-1.085-1.142-2.238-1.204-3.472c-0.127-2.501,1.044-4.38,3.131-5.668c1.763-1.087,4.251-2.454,6.193-3.011
							c-0.405,1.004-1.189,1.807-1.397,2.939c-0.208,1.135,0.223,2.475,1.276,2.944c0.831,0.369,1.804,0.118,2.632-0.257
							c2.622-1.191,4.635-3.648,5.284-6.455L-456.468,31.901z"/>
						<path fill="#5A9CD4" d="M-454.176,36.858c-0.802,1.394-1.106,3.021-1.517,4.584c-0.411,1.564-0.982,3.167-2.157,4.245
							c-1.295,1.188-3.103,1.547-4.633,2.388c-1.626,0.894-3.158,2.976-3.411,7.313c-0.182,3.119,2.914,5.341,5.7,4.101
							c7.263-3.234,16.728-10.91,13.234-22.252C-447.996,33.868-452.052,33.169-454.176,36.858z"/>
						<path fill="#5A9CD4" d="M-484.653,46.573c1.285-0.5,2.152,0.01,2.761,1.248c0.609,1.238,0.589,2.677,0.612,4.056
							c0.072,4.396,1.58,8.738,5.808,10.749c2.918,1.388,6.039,2.24,9.283,2.315c9.375,0.219,20.422-7.427,21.569-17.168
							c0.086-0.727,0.346-2.007,0.075-2.702c2.108,5.409,2.604,9.169,0.057,14.387c-1.048,2.147-2.642,3.999-4.642,5.305
							c-13.87,9.055-25.64,3.912-28.561,1.75c-2.921-2.163-4.513-5.455-5.776-8.862C-484.73,54.243-485.207,50.292-484.653,46.573z"
							/>
					</g>
					<circle fill="none" cx="-463.369" cy="52.033" r="19.518"/>
				</g>
				
					<linearGradient id="SVGID_8_" gradientUnits="userSpaceOnUse" x1="-383.6504" y1="2.4561" x2="-377.1561" y2="14.227" gradientTransform="matrix(1.0867 -0.0677 0.0734 1.1791 -55.568 9.7629)">
					<stop  offset="0" style="stop-color:#FFFFFF"/>
					<stop  offset="1" style="stop-color:#FFFFFF;stop-opacity:0"/>
				</linearGradient>
				<path opacity="0.7" fill="url(#SVGID_8_)" d="M-459.013,38.184c-2.306-2.963-8.122-1.767-12.99,2.672s-6.946,10.44-4.641,13.403
					s8.122,1.767,12.99-2.672C-458.784,47.148-456.707,41.147-459.013,38.184z"/>
				<g opacity="0.49">
					<path fill="#C4C4C4" d="M-457.906,33.296c5.874,3.364,9.834,9.689,9.834,16.943c0,10.779-8.737,19.517-19.517,19.517
						c-1.897,0-3.729-0.276-5.464-0.781c2.854,1.635,6.158,2.574,9.684,2.574c10.779,0,19.518-8.738,19.518-19.517
						C-443.852,43.151-449.787,35.66-457.906,33.296z"/>
				</g>
			</g>
		</g>
		<g>
			<g>
				<g>
					<g>
						<linearGradient id="SVGID_9_" gradientUnits="userSpaceOnUse" x1="-271.0796" y1="74.6782" x2="-208.6129" y2="137.145">
							<stop  offset="0.0081" style="stop-color:#FFFFFF"/>
							<stop  offset="1" style="stop-color:#FFFFFF;stop-opacity:0"/>
						</linearGradient>
						<path fill="url(#SVGID_9_)" d="M-244.813,138.746c-20.845,0-37.804-16.958-37.804-37.803s16.959-37.802,37.804-37.802
							c20.844,0,37.802,16.957,37.802,37.802S-223.97,138.746-244.813,138.746z"/>
						<linearGradient id="SVGID_10_" gradientUnits="userSpaceOnUse" x1="-273.9951" y1="100.9434" x2="-215.6338" y2="100.9434">
							<stop  offset="0" style="stop-color:#FEE62A"/>
							<stop  offset="0.1378" style="stop-color:#FDD82B"/>
							<stop  offset="0.3964" style="stop-color:#F9B42C"/>
							<stop  offset="0.7453" style="stop-color:#F37B2F"/>
							<stop  offset="0.9911" style="stop-color:#EF4E31"/>
						</linearGradient>
						<circle fill="url(#SVGID_10_)" cx="-244.814" cy="100.943" r="29.181"/>
						<path opacity="0.56" fill="#D48024" d="M-263.117,111.451c2.72-2.204,6.334-2.974,9.829-3.173
							c3.494-0.199,7.013,0.102,10.492-0.278c1.719-0.188,3.458-0.556,4.936-1.452c1.479-0.897,2.67-2.397,2.843-4.117
							c0.28-2.781-2.229-5.252-4.965-5.821c-2.737-0.568-5.563,0.317-8.123,1.44c-2.56,1.123-5.051,2.507-7.8,3.016
							c-3.868,0.716-7.747-0.405-11.257-1.988c-1.921-0.866-4.135-2.573-6.393-3.162c-0.284,1.634-0.44,3.313-0.44,5.028
							c0,5.763,1.677,11.131,4.561,15.655c0.025-0.008,0.051-0.013,0.076-0.021C-266.786,115.706-265.228,113.16-263.117,111.451z"
							/>
						<path opacity="0.56" fill="#D48024" d="M-220.102,106.7c-6.863,4.518-14.941,7.207-23.158,7.566
							c-1.211,0.053-2.464,0.066-3.567,0.569s-2.02,1.654-1.817,2.85c0.315,1.87,2.775,2.34,4.668,2.225
							c9.342-0.564,18.075-4.599,26.486-8.713c0.937-2.496,1.537-5.154,1.756-7.92C-217.4,104.311-219.021,105.99-220.102,106.7z"/>
						<path opacity="0.56" fill="#D48024" d="M-258.104,95.804c6.696-0.065,13.068-2.689,19.246-5.272
							c0.664-0.277,1.403-0.635,1.608-1.325c0.337-1.13-0.997-2.04-2.152-2.279c-6.279-1.302-12.438,4.428-18.718,3.126
							c-3.969-0.823-6.859-4.255-10.553-5.902c-1.38,1.957-2.525,4.089-3.395,6.36c0.886,0.851,1.777,1.559,2.358,1.955
							C-266.342,94.762-262.156,95.844-258.104,95.804z"/>
						<path opacity="0.56" fill="#D48024" d="M-231.763,92.765c-0.835,1.042-1.512,2.277-1.581,3.611
							c-0.069,1.334,0.592,2.765,1.814,3.301c1.361,0.598,2.965-0.035,4.137-0.95c1.172-0.915,2.123-2.11,3.391-2.886
							c1.52-0.929,3.35-1.172,5.123-1.332c0.819-0.074,1.648-0.143,2.466-0.259c-0.643-2.735-1.668-5.321-3.02-7.7
							c-1.851,0.382-3.492,0.88-4.335,1.143C-226.826,88.644-229.761,90.265-231.763,92.765z"/>
						<path opacity="0.56" fill="#D48024" d="M-256.575,83.515c4.091,0.845,8.318,0.609,12.489,0.37
							c4.978-0.287,10.101-0.609,14.6-2.758c1.108-0.529,2.26-1.284,2.569-2.473c0.062-0.235,0.081-0.468,0.068-0.696
							c-1.434-1.123-2.975-2.113-4.606-2.955c-1.466,0.199-2.875,0.88-4.261,1.461c-7.861,3.292-17.037,3.23-24.892-0.053
							c-1.479,0.954-2.866,2.036-4.146,3.234c0.085,0.076,0.162,0.143,0.226,0.197C-262.275,81.747-259.444,82.922-256.575,83.515z"
							/>
						<path opacity="0.56" fill="#D48024" d="M-255.706,120.145c1.196-0.368,2.351-1.408,2.223-2.653
							c-0.11-1.07-1.161-1.852-2.227-2s-2.133,0.195-3.138,0.579c-2.833,1.083-5.248,2.72-7.873,4.141
							c0.918,1.042,1.908,2.018,2.965,2.921c1.322-1.037,2.679-2.021,4.347-2.409C-258.191,120.439-256.901,120.513-255.706,120.145
							z"/>
						<path opacity="0.56" fill="#D48024" d="M-238.044,123.581c-0.056-0.651-0.636-1.161-1.265-1.338
							c-0.628-0.177-1.298-0.09-1.943,0.01c-5.541,0.864-10.722,2.725-15.714,5.22c2.178,1,4.499,1.737,6.926,2.176
							c3.325-1.33,6.65-2.66,9.975-3.989C-239.1,125.273-237.956,124.616-238.044,123.581z"/>
						<path opacity="0.8" fill="#969499" d="M-244.814,71.762c-0.658,0-1.309,0.03-1.956,0.073
							c12.05,3.59,20.838,14.748,20.838,27.964c0,15.458-12.021,28.101-27.225,29.108c2.644,0.788,5.442,1.217,8.343,1.217
							c16.116,0,29.181-13.065,29.181-29.181S-228.698,71.762-244.814,71.762z"/>
					</g>
				</g>
				
					<linearGradient id="SVGID_11_" gradientUnits="userSpaceOnUse" x1="-192.9922" y1="47.4082" x2="-182.756" y2="65.9612" gradientTransform="matrix(1.0867 -0.0677 0.0734 1.1791 -55.568 9.7629)">
					<stop  offset="0" style="stop-color:#FFFFFF"/>
					<stop  offset="1" style="stop-color:#FFFFFF;stop-opacity:0"/>
				</linearGradient>
				<path opacity="0.7" fill="url(#SVGID_11_)" d="M-240.866,78.023c-3.635-4.671-12.802-2.786-20.477,4.212
					c-7.674,6.997-10.948,16.456-7.314,21.127c3.635,4.671,12.803,2.786,20.477-4.211
					C-240.507,92.153-237.231,82.694-240.866,78.023z"/>
			</g>
			<g>
				<linearGradient id="SVGID_12_" gradientUnits="userSpaceOnUse" x1="-602.7832" y1="321.5107" x2="-499.1797" y2="429.6683">
					<stop  offset="0.0081" style="stop-color:#FFFFFF"/>
					<stop  offset="1" style="stop-color:#FFFFFF;stop-opacity:0"/>
				</linearGradient>
				<circle fill="url(#SVGID_12_)" cx="-558.219" cy="368.033" r="70.207"/>
				<g>
					<g>
						<linearGradient id="SVGID_13_" gradientUnits="userSpaceOnUse" x1="-593.6406" y1="330.499" x2="-510.056" y2="417.7578">
							<stop  offset="0" style="stop-color:#61C6F2"/>
							<stop  offset="0.167" style="stop-color:#58BBEB"/>
							<stop  offset="0.4572" style="stop-color:#409FDA"/>
							<stop  offset="0.834" style="stop-color:#1971BE"/>
							<stop  offset="0.8936" style="stop-color:#1269B9"/>
						</linearGradient>
						<circle fill="url(#SVGID_13_)" cx="-557.688" cy="368.032" r="56.641"/>
						<g opacity="0.53">
							<path fill="#5A9CD4" d="M-537.659,309.607c2.437,9.684-1.701,20.675-9.918,26.348c-6.323,4.365-14.68,5.807-19.777,11.556
								c-3.733,4.212-5.022,9.997-6.055,15.53s-2.038,11.314-5.385,15.84c-3.347,4.524-9.86,7.273-14.767,4.517
								c-4.199-2.358-5.701-7.699-5.804-12.514c-0.103-4.815,0.783-9.716-0.325-14.403c-0.825-3.489-2.702-6.62-4.413-9.771
								c-1.711-3.15-3.311-6.494-3.493-10.076c-0.369-7.259,3.028-12.711,9.087-16.449c5.114-3.154,12.334-7.122,17.973-8.738
								c-1.176,2.914-3.452,5.242-4.055,8.528c-0.604,3.294,0.645,7.184,3.704,8.545c2.41,1.072,5.235,0.344,7.636-0.747
								c7.612-3.456,13.451-10.588,15.337-18.731L-537.659,309.607z"/>
							<path fill="#5A9CD4" d="M-531.007,323.995c-2.328,4.045-3.212,8.765-4.403,13.305c-1.19,4.539-2.851,9.189-6.26,12.318
								c-3.758,3.448-9.004,4.488-13.445,6.931c-4.718,2.594-9.166,8.636-9.899,21.224c-0.527,9.053,8.458,15.501,16.543,11.9
								c21.077-9.385,48.544-31.662,38.408-64.579C-513.075,315.315-524.844,313.287-531.007,323.995z"/>
							<path fill="#5A9CD4" d="M-619.458,352.188c3.731-1.451,6.246,0.029,8.013,3.622c1.768,3.592,1.708,7.768,1.775,11.771
								c0.211,12.757,4.586,25.357,16.854,31.194c8.469,4.029,17.528,6.502,26.941,6.722c27.208,0.636,59.269-21.557,62.599-49.824
								c0.249-2.109,1.004-5.824,0.217-7.843c6.12,15.698,7.557,26.612,0.166,41.753c-3.042,6.23-7.667,11.604-13.472,15.395
								c-40.252,26.279-74.409,11.353-82.886,5.077c-8.478-6.275-13.096-15.829-16.763-25.719
								C-619.681,374.446-621.065,362.98-619.458,352.188z"/>
						</g>
						<circle fill="none" cx="-557.688" cy="368.032" r="56.641"/>
					</g>
					
						<linearGradient id="SVGID_14_" gradientUnits="userSpaceOnUse" x1="-502.2612" y1="242.0273" x2="-483.4149" y2="276.1864" gradientTransform="matrix(1.0867 -0.0677 0.0734 1.1791 -55.568 9.7629)">
						<stop  offset="0" style="stop-color:#FFFFFF"/>
						<stop  offset="1" style="stop-color:#FFFFFF;stop-opacity:0"/>
					</linearGradient>
					<path opacity="0.7" fill="url(#SVGID_14_)" d="M-545.045,327.842c-6.691-8.6-23.57-5.128-37.7,7.754
						c-14.129,12.884-20.159,30.299-13.467,38.898c6.692,8.601,23.57,5.129,37.7-7.754S-538.353,336.442-545.045,327.842z"/>
					<g opacity="0.49">
						<path fill="#C4C4C4" d="M-541.833,313.656c17.046,9.764,28.54,28.119,28.54,49.171c0,31.282-25.359,56.642-56.642,56.642
							c-5.506,0-10.822-0.801-15.855-2.267c8.284,4.745,17.872,7.471,28.102,7.471c31.282,0,56.641-25.358,56.641-56.641
							C-501.047,342.256-518.271,320.516-541.833,313.656z"/>
					</g>
				</g>
			</g>
			<g>
				<linearGradient id="SVGID_15_" gradientUnits="userSpaceOnUse" x1="-419.3447" y1="469.5254" x2="-96.7725" y2="469.5254">
					<stop  offset="0.0081" style="stop-color:#FFFFFF"/>
					<stop  offset="1" style="stop-color:#FFFFFF;stop-opacity:0"/>
				</linearGradient>
				<circle fill="url(#SVGID_15_)" cx="-258.059" cy="469.525" r="161.286"/>
				<g>
					<linearGradient id="SVGID_16_" gradientUnits="userSpaceOnUse" x1="-330.519" y1="379.0166" x2="-171.7179" y2="577.3746">
						<stop  offset="0" style="stop-color:#FEE62A"/>
						<stop  offset="0.1378" style="stop-color:#FDD82B"/>
						<stop  offset="0.3964" style="stop-color:#F9B42C"/>
						<stop  offset="0.7453" style="stop-color:#F37B2F"/>
						<stop  offset="0.9911" style="stop-color:#EF4E31"/>
					</linearGradient>
					<circle fill="url(#SVGID_16_)" cx="-257.46" cy="470.275" r="138.354"/>
					<path opacity="0.33" fill="#EF4E31" d="M-278.466,342.13c-2.788,1.768-5.609,4.613-4.982,7.854
						c0.635,3.275,4.356,4.843,7.613,5.568c9.055,2.016,18.605,1.76,27.54-0.737c2.014-0.563,4.04-1.261,5.689-2.546
						s2.882-3.261,2.803-5.351c-0.24-6.363-10.063-9.615-15.084-10.163C-263.048,335.865-271.521,337.728-278.466,342.13z"/>
					<path opacity="0.33" fill="#EF4E31" d="M-279.813,391.558c-1.679,1.234-3.223,2.752-4.051,4.664
						c-0.829,1.912-0.833,4.272,0.383,5.965c1.942,2.706,5.922,2.721,9.21,2.187c3.564-0.578,7.077-1.479,10.48-2.687
						c2.798-0.993,5.686-2.327,7.283-4.83c3.355-5.255-1.402-8.635-5.98-9.341C-268.531,386.585-274.851,387.91-279.813,391.558z"/>
					<path opacity="0.33" fill="#EF4E31" d="M-272.264,437.6c1.451,1.48,3.778,1.657,5.832,1.374
						c5.802-0.799,11.165-9.384,3.39-11.571C-267.983,426.013-277.327,432.438-272.264,437.6z"/>
					<path opacity="0.33" fill="#EF4E31" d="M-252.39,377.978c1.451,1.48,3.778,1.657,5.833,1.374
						c5.801-0.799,11.164-9.384,3.389-11.571C-248.108,366.391-257.453,372.815-252.39,377.978z"/>
					<path opacity="0.33" fill="#EF4E31" d="M-206.301,450.48c-0.908,2.822-0.526,6.414,1.955,8.036
						c1.576,1.029,3.619,1.021,5.466,0.651c2.562-0.513,5.035-1.686,6.832-3.582c1.797-1.896,2.854-4.555,2.545-7.148
						C-190.856,437.102-203.963,443.21-206.301,450.48z"/>
					<path opacity="0.33" fill="#EF4E31" d="M-246.636,433.437c-4.125,4.735-5.309,11.339-5.584,17.612
						c-0.3,6.822,0.283,13.684,1.729,20.358c1.204,5.555,3.607,11.652,8.914,13.688c3.998,1.533,8.668,0.196,12.03-2.456
						c3.362-2.65,5.63-6.435,7.552-10.261c3.805-7.575,6.598-16.066,5.336-24.449C-218.575,435.199-235.388,420.527-246.636,433.437
						z"/>
					<path opacity="0.33" fill="#EF4E31" d="M-317.969,425.751c-4.278,5.517-6.836,12.665-5.646,19.543s6.682,13.157,13.605,14.05
						c4.212,0.543,8.501-0.87,12.068-3.174c7.256-4.687,11.848-13.236,11.747-21.873c-0.083-7.137-4.082-18.323-11.937-20.281
						C-305.623,412.147-313.886,420.486-317.969,425.751z"/>
					<path opacity="0.33" fill="#EF4E31" d="M-332.321,364.791c-8.938,6.064-15.498,15.542-18.023,26.044
						c-1.129,4.696-1.1,10.485,2.77,13.377c3.942,2.945,9.54,1.232,13.998-0.854c9.994-4.679,19.346-10.729,27.71-17.929
						c3.939-3.391,7.786-7.228,9.486-12.139c2.465-7.125-0.757-15.299-8.551-15.991C-314.398,356.458-324.521,359.5-332.321,364.791
						z"/>
					<path opacity="0.33" fill="#EF4E31" d="M-206.656,479.862c-3.665,2.556-5.96,6.619-7.86,10.663
						c-4.198,8.938-7.077,18.495-8.516,28.265c-0.751,5.109-0.995,10.741,1.935,14.993c2.334,3.388,6.427,5.319,10.531,5.605
						c4.104,0.285,8.203-0.932,11.852-2.833c9.787-5.101,16.646-15.429,17.55-26.429c0.719-8.759-2.353-17.54-7.988-24.221
						C-193.995,480.166-198.477,474.159-206.656,479.862z"/>
					<path opacity="0.33" fill="#EF4E31" d="M-267.491,524.399c-1.165,1.577-2.169,3.33-2.518,5.26
						c-0.348,1.931,0.042,4.066,1.372,5.508c1.454,1.575,3.797,2.08,5.92,1.787c2.124-0.293,4.084-1.273,5.97-2.294
						c3.874-2.096,7.684-4.47,10.607-7.765c4.564-5.146,6.449-13.694-3.006-12.926
						C-256.259,514.547-263.283,518.705-267.491,524.399z"/>
					<path opacity="0.33" fill="#EF4E31" d="M-291.842,465.404c-1.082,4.604,1.259,9.592,5.058,12.41
						c3.799,2.817,8.789,3.674,13.494,3.188c8.147-0.842,17.153-8.063,13.36-17.139c-2.989-7.153-14.242-9.033-20.948-7.774
						C-285.767,457.007-290.65,460.336-291.842,465.404z"/>
					<path opacity="0.33" fill="#EF4E31" d="M-294.193,517.078c1.306,2.11,4.106,3.021,6.523,2.46
						c5.479-1.273,9.552-10.199,3.36-13.39C-290.014,503.21-297.538,511.672-294.193,517.078z"/>
					<path opacity="0.33" fill="#EF4E31" d="M-173.152,482.872c0.033,0.924,0.488,1.875,1.31,2.301
						c3.05,1.577,9.521-4.596,6.536-7.68C-168.777,473.907-173.284,479.306-173.152,482.872z"/>
					<path opacity="0.33" fill="#EF4E31" d="M-170.368,437.564c-2.36,0.855-4.804,2.661-4.805,5.171c0,2.481,2.35,4.254,4.537,5.425
						c2.693,1.442,5.609,2.643,8.664,2.726c3.054,0.084,6.278-1.125,7.981-3.662C-147.266,437.208-164.945,435.598-170.368,437.564z
						"/>
					<path opacity="0.33" fill="#EF4E31" d="M-235.763,382.086c-5.262,6.757-4.936,16.869-0.362,24.109
						c4.573,7.239,12.718,11.731,21.141,13.274c5.994,1.099,12.821,0.601,17.22-3.617c5.338-5.118,5.115-14.098,1.51-20.555
						C-203.025,383.171-223.826,366.76-235.763,382.086z"/>
					<path opacity="0.33" fill="#EF4E31" d="M-199.494,355.87c-2.938,0.299-5.919,2.421-6.144,5.366
						c-0.254,3.345,2.95,5.926,6.078,7.135c2.433,0.94,5.128,1.452,7.655,0.811c2.527-0.641,4.82-2.633,5.246-5.205
						C-185.677,358.057-195.207,355.436-199.494,355.87z"/>
					<path opacity="0.33" fill="#EF4E31" d="M-179.182,379.573c-2.593,3.49-1.543,8.423,0.03,12.476
						c2.647,6.819,6.467,13.183,11.241,18.725c2.474,2.871,5.548,5.688,9.328,5.949c4.141,0.286,8.026-2.823,9.479-6.712
						C-144.937,398.858-167.719,364.141-179.182,379.573z"/>
					<path opacity="0.33" fill="#EF4E31" d="M-146.942,479c0.609,2.508,2.804,4.668,5.379,4.84c3.295,0.219,6.01-2.604,7.549-5.525
						c2.194-4.167,1.688-11.327-4.526-11.15C-143.629,467.308-148.059,474.403-146.942,479z"/>
					<path opacity="0.33" fill="#EF4E31" d="M-152.818,525.696c1.753,1.452,4.328,1.594,6.474,0.833
						c8.451-2.996,17.621-18.845,5.552-23.249C-151.172,499.492-160.17,519.605-152.818,525.696z"/>
					<path opacity="0.33" fill="#EF4E31" d="M-190.669,561.255c-0.77,9.118,5.811,18.574,14.829,20.124
						c5.554,0.953,11.215-0.904,16.282-3.368c9.494-4.617,20.821-15.767,14.063-27.101c-6.387-10.713-23.97-12.585-33.927-6.69
						C-185.47,547.801-190.069,554.147-190.669,561.255z"/>
					<path opacity="0.33" fill="#EF4E31" d="M-251.663,567.798c-2.795,2.172-5.419,5.013-5.845,8.527
						c-0.584,4.819,3.405,9.314,8.059,10.698c4.652,1.385,9.689,0.303,14.234-1.402c3.325-1.248,6.583-2.865,9.132-5.339
						c5.288-5.132,6.097-15.837-1.634-19.202C-235.228,557.81-245.895,563.317-251.663,567.798z"/>
					<path opacity="0.33" fill="#EF4E31" d="M-284.386,550.215c-2.574-0.746-5.654-0.373-7.452,1.614
						c-2.271,2.51-1.718,6.422-0.758,9.667c1.008,3.408,2.338,6.775,4.48,9.611s5.179,5.115,8.668,5.794
						c3.489,0.678,7.412-0.456,9.587-3.268c2.396-3.099,2.272-7.608,0.594-11.147C-271.903,556.93-278.508,551.917-284.386,550.215z
						"/>
					<path opacity="0.33" fill="#EF4E31" d="M-335.351,515.752c4.461,6.03,11.541,10.747,19.015,10.103
						c9.102-0.785,16.072-9.622,16.95-18.716c0.879-9.093-3.189-18.046-8.78-25.271c-2.992-3.867-6.566-7.47-11.067-9.38
						C-344.804,461.634-344.894,502.852-335.351,515.752z"/>
					<path opacity="0.33" fill="#EF4E31" d="M-356.521,464.435c3.534,1.095,7.345-0.8,10.056-3.318
						c6.871-6.384,6.769-22.58-5.793-18.951C-360.355,444.504-367.489,461.038-356.521,464.435z"/>
					<path opacity="0.33" fill="#EF4E31" d="M-401.597,427.949c-0.447,4.867-0.299,9.925,1.617,14.422
						c1.916,4.496,5.875,8.347,10.709,9.068c6.856,1.023,13.017-4.185,17.389-9.565c4.741-5.835,8.735-12.488,10.224-19.858
						c1.488-7.369,0.194-15.545-4.637-21.306C-385.786,377.466-400.148,412.188-401.597,427.949z"/>
					<path opacity="0.33" fill="#EF4E31" d="M-364.476,538.941c-5.294-1.566-11.724-2.065-15.664,1.801
						c-4.005,3.932-3.537,10.492-2,15.89c4.377,15.366,15.332,28.739,29.537,36.054c7.035,3.623,16.527,5.427,22.18-0.111
						c8.504-8.332,0.875-22.684-3.853-31.068C-340.454,550.549-352.615,542.452-364.476,538.941z"/>
					<path opacity="0.33" fill="#EF4E31" d="M-323.513,551.501c1.923,3,6.396,3.989,9.404,2.079s4.018-6.378,2.121-9.396
						c-1.897-3.018-6.361-4.045-9.387-2.162c-3.025,1.884-4.073,6.343-2.202,9.377"/>
					<path opacity="0.33" fill="#EF4E31" d="M-369.735,515.955c2.269,2.413,5.853,4.431,8.767,2.855
						c2.542-1.374,3.15-4.72,3.196-7.609c0.066-4.264-0.466-8.536-1.577-12.653c-1.82-6.741-9.349-14.332-14.952-6.391
						C-379.209,499.113-374.847,510.517-369.735,515.955z"/>
					
						<linearGradient id="SVGID_17_" gradientUnits="userSpaceOnUse" x1="-280.46" y1="282.731" x2="-232.0064" y2="370.553" gradientTransform="matrix(1.0867 -0.0677 0.0734 1.1791 -55.568 9.7629)">
						<stop  offset="0" style="stop-color:#FFFFFF"/>
						<stop  offset="1" style="stop-color:#FFFFFF;stop-opacity:0"/>
					</linearGradient>
					<path opacity="0.83" fill="url(#SVGID_17_)" d="M-240.438,358.781c-17.204-22.111-60.599-13.186-96.925,19.936
						c-36.326,33.122-51.828,77.896-34.623,100.007c17.204,22.111,60.599,13.187,96.925-19.936
						C-238.734,425.666-223.234,380.893-240.438,358.781z"/>
					<g opacity="0.46">
						<path fill="#969499" d="M-213.317,339.115c31.791,25.35,52.17,64.406,52.17,108.229c0,76.41-61.943,138.354-138.354,138.354
							c-15.436,0-30.279-2.53-44.144-7.194c23.643,18.853,53.596,30.126,86.185,30.126c76.411,0,138.354-61.943,138.354-138.354
							C-119.105,409.3-158.553,357.539-213.317,339.115z"/>
					</g>
					<circle fill="none" cx="-257.46" cy="470.275" r="138.354"/>
				</g>
			</g>
			<g>
				<path fill="none" d="M-444.182,56.014c5.344-0.576,8.67-1.381,8.67-2.273c0-0.87-3.161-1.658-8.274-2.23
					c0.004,0.161,0.024,0.318,0.024,0.48C-443.762,53.37-443.909,54.715-444.182,56.014z"/>
				<path fill="none" d="M-482.729,51.354c-5.991,0.581-9.782,1.434-9.782,2.387c0,0.975,3.971,1.847,10.21,2.428
					c-0.294-1.348-0.46-2.743-0.46-4.178C-482.762,51.775-482.736,51.567-482.729,51.354z"/>
				<path fill="none" d="M-482.729,51.354c-0.007,0.213-0.032,0.422-0.032,0.637c0,1.436,0.166,2.831,0.46,4.178
					c4.95,0.46,11.327,0.738,18.29,0.738c7.71,0,14.699-0.341,19.83-0.893c0.272-1.299,0.42-2.644,0.42-4.023
					c0-0.162-0.021-0.319-0.024-0.48c-5.163-0.578-12.317-0.936-20.226-0.936C-471.179,50.574-477.722,50.868-482.729,51.354z"/>
				<path fill="none" d="M-481.501,58.837c2.774,7.387,9.883,12.653,18.239,12.653c8.398,0,15.535-5.319,18.28-12.765
					c-5.659,0.435-12.141,0.681-19.03,0.681C-470.284,59.407-476.218,59.202-481.501,58.837z"/>
				<path fill="none" d="M-444.04,48.831c-1.513-9.264-9.53-16.341-19.222-16.341c-9.65,0-17.643,7.017-19.203,16.223
					c5.522-0.408,11.795-0.639,18.453-0.639C-456.735,48.074-449.919,48.35-444.04,48.831z"/>
				<linearGradient id="SVGID_18_" gradientUnits="userSpaceOnUse" x1="-504.0117" y1="54.0596" x2="-424.0117" y2="54.0596">
					<stop  offset="0" style="stop-color:#FEE62A"/>
					<stop  offset="0.1378" style="stop-color:#FDD82B"/>
					<stop  offset="0.3964" style="stop-color:#F9B42C"/>
					<stop  offset="0.7453" style="stop-color:#F37B2F"/>
					<stop  offset="0.9911" style="stop-color:#EF4E31"/>
				</linearGradient>
				<path fill="url(#SVGID_18_)" d="M-444.04,48.831c0.143,0.875,0.231,1.768,0.254,2.679c5.113,0.572,8.274,1.36,8.274,2.23
					c0,0.892-3.326,1.698-8.67,2.273c-5.131,0.552-12.12,0.893-19.83,0.893c-6.963,0-13.34-0.278-18.29-0.738
					c-6.239-0.581-10.21-1.453-10.21-2.428c0-0.953,3.791-1.806,9.782-2.387c0.029-0.897,0.118-1.778,0.265-2.641
					c-12.801,0.945-21.547,2.841-21.547,5.027c0,2.241,9.185,4.178,22.511,5.097c5.283,0.365,11.217,0.569,17.489,0.569
					c6.89,0,13.371-0.247,19.03-0.681c12.488-0.959,20.97-2.832,20.97-4.985C-424.012,51.642-432.072,49.811-444.04,48.831z"/>
			</g>
		</g>
	</g>
</g>
<g id="Layer_8">
	<path fill="#F9FAFD" d="M-435.021,304.45c-16.408,1-46.642-3-53.604-35.127c-3.379-15.591-4.457-32.372-12.875-46.011
		c-4.081-6.61-9.624-11.907-15.902-15.894c-39.836-25.301-82.622,20.699-131.955-5.967c-73.424-39.688-44.667-128-186.724-152
		v566.871c39.834-25.3,13.344-75.494,53.179-100.794c39.833-25.299,66.324,24.896,106.158-0.403
		c39.834-25.3,13.345-75.494,53.18-100.794c39.836-25.301,66.327,24.894,106.163-0.407c14.339-9.106,21.372-23.853,24.867-41.089
		c3.167-15.617,4.17-26.225,14.671-38.05c17.168-19.334,43.007-17.733,43.755-18.5C-433.024,315.173-432.683,304.308-435.021,304.45
		z"/>
</g>
<g id="Layer_7">
	<g>
		<text transform="matrix(1 0 0 1 -793.0229 288.7095)" fill="#300152" font-family="'Montserrat-Black'" font-size="21.3006">GRADIENT SPACE</text>
		<text transform="matrix(1 0 0 1 -793.0225 312.4702)" fill="#6E6E6D" font-family="'Montserrat-Medium'" font-size="20.0005">WITH A ROCKET</text>
		<rect x="-790.5" y="331.287" fill="none" width="201.143" height="32.662"/>
		<text transform="matrix(1 0 0 1 -790.4995 336.3428)"><tspan x="0" y="0" fill="#6E6E6D" font-family="'Montserrat-Regular'" font-size="7.1202">Lorem</tspan><tspan x="19.104" y="0" fill="#6E6E6D" font-family="'Montserrat-Regular'" font-size="7.1202"> </tspan><tspan x="21.195" y="0" fill="#6E6E6D" font-family="'Montserrat-Regular'" font-size="7.1202">ipsum</tspan><tspan x="39.594" y="0" fill="#6E6E6D" font-family="'Montserrat-Regular'" font-size="7.1202"> </tspan><tspan x="41.686" y="0" fill="#6E6E6D" font-family="'Montserrat-Regular'" font-size="7.1202">dolor</tspan><tspan x="57.528" y="0" fill="#6E6E6D" font-family="'Montserrat-Regular'" font-size="7.1202"> </tspan><tspan x="59.619" y="0" fill="#6E6E6D" font-family="'Montserrat-Regular'" font-size="7.1202">sit</tspan><tspan x="66.461" y="0" fill="#6E6E6D" font-family="'Montserrat-Regular'" font-size="7.1202"> </tspan><tspan x="68.553" y="0" fill="#6E6E6D" font-family="'Montserrat-Regular'" font-size="7.1202">amet,</tspan><tspan x="85.321" y="0" fill="#6E6E6D" font-family="'Montserrat-Regular'" font-size="7.1202"> </tspan><tspan x="87.413" y="0" fill="#6E6E6D" font-family="'Montserrat-Regular'" font-size="7.1202">consectetuer</tspan><tspan x="126.141" y="0" fill="#6E6E6D" font-family="'Montserrat-Regular'" font-size="7.1202"> </tspan><tspan x="128.232" y="0" fill="#6E6E6D" font-family="'Montserrat-Regular'" font-size="7.1202">adipiscing</tspan><tspan x="158.671" y="0" fill="#6E6E6D" font-family="'Montserrat-Regular'" font-size="7.1202"> </tspan><tspan x="160.762" y="0" fill="#6E6E6D" font-family="'Montserrat-Regular'" font-size="7.1202">elit,</tspan><tspan x="171.506" y="0" fill="#6E6E6D" font-family="'Montserrat-Regular'" font-size="7.1202"> </tspan><tspan x="173.598" y="0" fill="#6E6E6D" font-family="'Montserrat-Regular'" font-size="7.1202">sed</tspan><tspan x="184.001" y="0" fill="#6E6E6D" font-family="'Montserrat-Regular'" font-size="7.1202"> </tspan><tspan x="186.092" y="0" fill="#6E6E6D" font-family="'Montserrat-Regular'" font-size="7.1202">diam </tspan><tspan x="0" y="10.68" fill="#6E6E6D" font-family="'Montserrat-Regular'" font-size="7.1202">nonummy</tspan><tspan x="30.966" y="10.68" fill="#6E6E6D" font-family="'Montserrat-Regular'" font-size="7.1202"> </tspan><tspan x="32.503" y="10.68" fill="#6E6E6D" font-family="'Montserrat-Regular'" font-size="7.1202">nibh</tspan><tspan x="46.124" y="10.68" fill="#6E6E6D" font-family="'Montserrat-Regular'" font-size="7.1202"> </tspan><tspan x="47.661" y="10.68" fill="#6E6E6D" font-family="'Montserrat-Regular'" font-size="7.1202">euismod</tspan><tspan x="73.5" y="10.68" fill="#6E6E6D" font-family="'Montserrat-Regular'" font-size="7.1202"> </tspan><tspan x="75.037" y="10.68" fill="#6E6E6D" font-family="'Montserrat-Regular'" font-size="7.1202">tincidunt</tspan><tspan x="102.115" y="10.68" fill="#6E6E6D" font-family="'Montserrat-Regular'" font-size="7.1202"> </tspan><tspan x="103.651" y="10.68" fill="#6E6E6D" font-family="'Montserrat-Regular'" font-size="7.1202">ut</tspan><tspan x="109.932" y="10.68" fill="#6E6E6D" font-family="'Montserrat-Regular'" font-size="7.1202"> </tspan><tspan x="111.469" y="10.68" fill="#6E6E6D" font-family="'Montserrat-Regular'" font-size="7.1202">laoreet</tspan><tspan x="132.31" y="10.68" fill="#6E6E6D" font-family="'Montserrat-Regular'" font-size="7.1202"> </tspan><tspan x="133.847" y="10.68" fill="#6E6E6D" font-family="'Montserrat-Regular'" font-size="7.1202">dolore</tspan><tspan x="153.256" y="10.68" fill="#6E6E6D" font-family="'Montserrat-Regular'" font-size="7.1202"> </tspan><tspan x="154.793" y="10.68" fill="#6E6E6D" font-family="'Montserrat-Regular'" font-size="7.1202">magna</tspan><tspan x="175.528" y="10.68" fill="#6E6E6D" font-family="'Montserrat-Regular'" font-size="7.1202"> </tspan><tspan x="177.064" y="10.68" fill="#6E6E6D" font-family="'Montserrat-Regular'" font-size="7.1202">aliquam </tspan><tspan x="0" y="21.359" fill="#6E6E6D" font-family="'Montserrat-Regular'" font-size="7.1202">erat volutpat. </tspan></text>
	</g>
</g>
<g id="Layer_6">
	<g>
		<g>
			<linearGradient id="SVGID_19_" gradientUnits="userSpaceOnUse" x1="0" y1="44.7021" x2="117.6547" y2="44.7021">
				<stop  offset="0" style="stop-color:#FEE62A"/>
				<stop  offset="0.1378" style="stop-color:#FDD82B"/>
				<stop  offset="0.3964" style="stop-color:#F9B42C"/>
				<stop  offset="0.7453" style="stop-color:#F37B2F"/>
				<stop  offset="0.9911" style="stop-color:#EF4E31"/>
			</linearGradient>
			<path fill="url(#SVGID_19_)" d="M116.588,30.543c-22.134-3.139-44.683-35.668-89.772-6.346
				c11.042-3.248,25.331-4.546,36.187,2.784c-6.402-0.278-25.19-5.01-62.999,17.72H0l0.002,0.001L0,44.703h0.004
				c37.809,22.73,56.597,17.999,62.999,17.721c-10.856,7.33-25.146,6.031-36.187,2.783c45.089,29.322,67.638-3.206,89.772-6.346
				V30.543z"/>
			<linearGradient id="SVGID_20_" gradientUnits="userSpaceOnUse" x1="43.7959" y1="44.708" x2="117.2539" y2="44.708">
				<stop  offset="0" style="stop-color:#F5E55E"/>
				<stop  offset="1" style="stop-color:#DA9231"/>
			</linearGradient>
			<path fill="url(#SVGID_20_)" d="M43.796,43.961c0,0,28.672-19.97,72.792-13.418v28.318
				C116.588,58.861,76.643,66.787,43.796,43.961z"/>
			<linearGradient id="SVGID_21_" gradientUnits="userSpaceOnUse" x1="63.6523" y1="44.708" x2="117.0723" y2="44.708">
				<stop  offset="0" style="stop-color:#F5EA91"/>
				<stop  offset="1" style="stop-color:#DA9231"/>
			</linearGradient>
			<path fill="url(#SVGID_21_)" d="M63.652,44.216c0,0,20.851-13.169,52.936-8.849v18.674
				C116.588,54.041,87.539,59.268,63.652,44.216z"/>
		</g>
		<g>
			<path fill="#F9FAFD" d="M257.686,43.936L257.686,43.936l-0.745,0.02l0.745-0.037l0,0C219.309,10.597,165.246,2.181,118.557,22.26
				l-8.313,3.575c-1.651,2.718-5.225,9.415-5.191,18.667c0.033,9.262,3.662,15.939,5.335,18.645c2.779,1.17,5.56,2.341,8.34,3.511
				C165.569,86.379,219.564,77.55,257.686,43.936z"/>
			<g>
				<path fill="#1285A2" d="M120.548,21.446c-0.663,0.272-1.33,0.53-1.99,0.814l-8.313,3.575c-1.652,2.718-5.226,9.416-5.192,18.667
					c0.033,9.262,3.662,15.939,5.335,18.645c2.779,1.17,5.56,2.341,8.34,3.511c0.662,0.279,1.331,0.531,1.996,0.8
					c-2.284-3.881-6.275-12.012-6.314-22.993C114.37,33.495,118.294,25.343,120.548,21.446z"/>
			</g>
			<g>
				<path fill="#5A9CD4" d="M230.248,44.026c0.026,6.851,1.873,12.529,3.763,16.56c8.371-4.611,16.32-10.166,23.675-16.65
					l-0.745,0.02l0.745-0.037l0,0c-7.405-6.43-15.397-11.923-23.804-16.471c-1.85,4.025-3.632,9.656-3.634,16.423
					C230.248,43.922,230.247,43.975,230.248,44.026z"/>
			</g>
			<g>
				<g>
					<path fill="#DCDDE0" d="M257.686,43.936l-0.745,0.02l0.745-0.037l0,0c-0.113-0.098-0.228-0.193-0.341-0.291L105.059,44.21
						c-0.001,0.099-0.006,0.193-0.006,0.292c0.033,9.262,3.662,15.939,5.335,18.645c2.779,1.17,5.56,2.341,8.34,3.511
						C165.569,86.379,219.564,77.55,257.686,43.936z"/>
				</g>
				<g>
					<g>
						<path fill="#CACBCE" d="M257.776,43.878l-0.744,0.02l0.744-0.037l0,0c-0.112-0.098-0.228-0.193-0.341-0.291
							c-13.912,8.135-38.545,20.183-71.628,24.557c-32.963,4.358-59.794-0.821-75.329-5.037c2.78,1.17,5.561,2.341,8.34,3.511
							C165.66,86.321,219.656,77.492,257.776,43.878z"/>
					</g>
				</g>
			</g>
			<g>
				<g>
					<g>
						<path fill="#281C4B" d="M165.75,44.76c-0.027-7.041,5.68-12.791,12.72-12.818c7.041-0.027,12.791,5.679,12.817,12.72
							c0.027,7.04-5.679,12.79-12.72,12.817C171.527,57.506,165.776,51.8,165.75,44.76z"/>
						<path fill="#1285A2" d="M189.769,44.668c0.023,6.213-4.994,11.269-11.207,11.293c-6.213,0.023-11.269-4.994-11.293-11.207
							c-0.023-6.214,4.994-11.27,11.207-11.293C184.688,33.437,189.745,38.454,189.769,44.668 M192.806,44.655
							c-0.029-7.877-6.464-14.262-14.342-14.232s-14.263,6.464-14.232,14.342c0.03,7.878,6.464,14.263,14.342,14.232
							S192.836,52.534,192.806,44.655L192.806,44.655z"/>
					</g>
				</g>
				
					<linearGradient id="SVGID_22_" gradientUnits="userSpaceOnUse" x1="-220.5278" y1="-849.9551" x2="-220.5278" y2="-824.1973" gradientTransform="matrix(0.0068 0.9999 -0.9999 0.0068 -653.6901 270.8366)">
					<stop  offset="0" style="stop-color:#FFFFFF"/>
					<stop  offset="0.7422" style="stop-color:#FFFFFF;stop-opacity:0"/>
				</linearGradient>
				<circle fill="url(#SVGID_22_)" cx="178.486" cy="44.661" r="8.098"/>
			</g>
			<g>
				<g>
					<g>
						<path fill="#281C4B" d="M199.444,45.333c-0.015-3.921,3.164-7.123,7.085-7.139c3.921-0.015,7.124,3.164,7.139,7.085
							s-3.163,7.123-7.084,7.139C202.662,52.433,199.46,49.255,199.444,45.333z"/>
						<path fill="#1285A2" d="M212.822,45.282c0.013,3.461-2.781,6.276-6.242,6.29c-3.46,0.013-6.276-2.781-6.289-6.242
							c-0.014-3.46,2.781-6.276,6.241-6.289C209.993,39.027,212.809,41.822,212.822,45.282 M214.514,45.275
							c-0.017-4.388-3.6-7.943-7.987-7.927c-4.388,0.017-7.944,3.601-7.928,7.988c0.018,4.388,3.601,7.943,7.988,7.927
							S214.53,49.664,214.514,45.275L214.514,45.275z"/>
					</g>
				</g>
				
					<linearGradient id="SVGID_23_" gradientUnits="userSpaceOnUse" x1="-219.7202" y1="-870.8286" x2="-219.7202" y2="-856.4828" gradientTransform="matrix(0.0068 0.9999 -0.9999 0.0068 -653.6901 270.8366)">
					<stop  offset="0" style="stop-color:#FFFFFF"/>
					<stop  offset="0.7422" style="stop-color:#FFFFFF;stop-opacity:0"/>
				</linearGradient>
				<circle fill="url(#SVGID_23_)" cx="206.538" cy="45.279" r="4.51"/>
			</g>
			<g>
				<g>
					<g>
						<path fill="#281C4B" d="M142.694,43.953c-0.015-3.922,3.164-7.124,7.085-7.139s7.124,3.164,7.139,7.084
							s-3.163,7.124-7.084,7.139C145.912,51.053,142.71,47.874,142.694,43.953z"/>
						<path fill="#1285A2" d="M156.072,43.901c0.013,3.461-2.781,6.276-6.242,6.29c-3.46,0.013-6.276-2.781-6.289-6.242
							c-0.014-3.46,2.781-6.276,6.241-6.289C153.243,37.646,156.059,40.441,156.072,43.901 M157.764,43.895
							c-0.017-4.387-3.6-7.943-7.987-7.926c-4.388,0.017-7.944,3.6-7.928,7.988c0.018,4.388,3.601,7.943,7.988,7.927
							S157.78,48.283,157.764,43.895L157.764,43.895z"/>
					</g>
				</g>
				
					<linearGradient id="SVGID_24_" gradientUnits="userSpaceOnUse" x1="-221.4868" y1="-814.085" x2="-221.4868" y2="-799.7392" gradientTransform="matrix(0.0068 0.9999 -0.9999 0.0068 -653.6901 270.8366)">
					<stop  offset="0" style="stop-color:#FFFFFF"/>
					<stop  offset="0.7422" style="stop-color:#FFFFFF;stop-opacity:0"/>
				</linearGradient>
				<circle fill="url(#SVGID_24_)" cx="149.788" cy="43.898" r="4.51"/>
			</g>
			<g>
				<g>
					<path fill="#5A9CD4" d="M123.491,20.232c5.172-1.826,11.009-3.59,17.462-5.077c7.578-1.746,14.586-2.781,20.807-3.376
						c-4.033-2.153-8.066-4.307-12.101-6.461c-9.682-5.17-20.916-6.633-31.6-4.115l-21.36,5.035L123.491,20.232z"/>
				</g>
			</g>
			<g>
				<g>
					<path fill="#DCDDE0" d="M124.906,19.544c4.418-1.56,9.404-3.067,14.917-4.337c6.475-1.491,12.46-2.375,17.774-2.884
						c-3.445-1.84-6.892-3.68-10.337-5.52c-8.271-4.417-17.868-5.666-26.994-3.515L102.02,7.59L124.906,19.544z"/>
				</g>
			</g>
			<g>
				<g>
					<path fill="#5A9CD4" d="M122.338,67.766c5.14,1.912,10.947,3.772,17.375,5.366c7.548,1.872,14.537,3.023,20.747,3.722
						c-4.068,2.086-8.138,4.173-12.206,6.259c-9.767,5.008-21.024,6.284-31.664,3.588l-21.273-5.39L122.338,67.766z"/>
				</g>
			</g>
			<g>
				<g>
					<path fill="#DCDDE0" d="M124.515,68.851c4.58,1.704,9.754,3.361,15.479,4.781c6.726,1.668,12.952,2.693,18.484,3.315
						c-3.625,1.859-7.249,3.718-10.874,5.576c-8.701,4.462-18.731,5.599-28.21,3.197l-18.953-4.803L124.515,68.851z"/>
				</g>
			</g>
		</g>
	</g>
</g>
</svg>
