<?xml version="1.0" encoding="utf-8"?>
<!-- Generator: Adobe Illustrator 16.0.0, SVG Export Plug-In . SVG Version: 6.00 Build 0)  -->
<!DOCTYPE svg PUBLIC "-//W3C//DTD SVG 1.1//EN" "http://www.w3.org/Graphics/SVG/1.1/DTD/svg11.dtd">
<svg version="1.1" xmlns="http://www.w3.org/2000/svg" xmlns:xlink="http://www.w3.org/1999/xlink" x="0px" y="0px"
	 width="402.809px" height="566.871px" viewBox="0 0 402.809 566.871" enable-background="new 0 0 402.809 566.871"
	 xml:space="preserve">
<g id="Layer_8">
	<linearGradient id="SVGID_1_" gradientUnits="userSpaceOnUse" x1="906.7578" y1="312.0127" x2="1024.7764" y2="312.0127">
		<stop  offset="0" style="stop-color:#4CD6F0"/>
		<stop  offset="1" style="stop-color:#4CD6F0;stop-opacity:0"/>
	</linearGradient>
	<path fill="url(#SVGID_1_)" d="M912.264,306.748l112.303,5.045c0.121,0.006,0.215,0.108,0.21,0.229
		c-0.005,0.114-0.098,0.204-0.21,0.209l-112.303,5.045c-2.907,0.131-5.37-2.12-5.5-5.027c-0.131-2.907,2.12-5.37,5.027-5.501
		C911.947,306.741,912.111,306.742,912.264,306.748z"/>
	<linearGradient id="SVGID_2_" gradientUnits="userSpaceOnUse" x1="33.7427" y1="-171.2695" x2="151.7612" y2="-171.2695">
		<stop  offset="0" style="stop-color:#4CD6F0"/>
		<stop  offset="1" style="stop-color:#4CD6F0;stop-opacity:0"/>
	</linearGradient>
	<path fill="url(#SVGID_2_)" d="M39.249-176.534l112.303,5.045c0.121,0.005,0.215,0.108,0.209,0.229
		c-0.005,0.114-0.098,0.204-0.209,0.21l-112.303,5.044c-2.908,0.131-5.371-2.12-5.501-5.027c-0.131-2.908,2.12-5.37,5.027-5.501
		C38.932-176.541,39.096-176.54,39.249-176.534z"/>
	<linearGradient id="SVGID_3_" gradientUnits="userSpaceOnUse" x1="1369.7578" y1="-117.9873" x2="1487.7764" y2="-117.9873">
		<stop  offset="0" style="stop-color:#4CD6F0"/>
		<stop  offset="1" style="stop-color:#4CD6F0;stop-opacity:0"/>
	</linearGradient>
	<path fill="url(#SVGID_3_)" d="M1375.264-123.252l112.303,5.045c0.121,0.006,0.215,0.108,0.21,0.229
		c-0.006,0.114-0.098,0.204-0.21,0.209l-112.303,5.045c-2.907,0.13-5.37-2.121-5.501-5.028c-0.13-2.907,2.121-5.37,5.028-5.501
		C1374.946-123.259,1375.11-123.258,1375.264-123.252z"/>
	<linearGradient id="SVGID_4_" gradientUnits="userSpaceOnUse" x1="1375.7578" y1="109.6797" x2="1493.7764" y2="109.6797">
		<stop  offset="0" style="stop-color:#4CD6F0"/>
		<stop  offset="1" style="stop-color:#4CD6F0;stop-opacity:0"/>
	</linearGradient>
	<path fill="url(#SVGID_4_)" d="M1381.264,104.415l112.303,5.045c0.121,0.005,0.215,0.107,0.21,0.229
		c-0.006,0.113-0.098,0.204-0.21,0.209l-112.303,5.045c-2.907,0.131-5.37-2.12-5.501-5.027c-0.13-2.908,2.121-5.37,5.028-5.501
		C1380.946,104.408,1381.11,104.408,1381.264,104.415z"/>
	<linearGradient id="SVGID_5_" gradientUnits="userSpaceOnUse" x1="1180.7578" y1="10.5127" x2="1298.7764" y2="10.5127">
		<stop  offset="0" style="stop-color:#4CD6F0"/>
		<stop  offset="1" style="stop-color:#4CD6F0;stop-opacity:0"/>
	</linearGradient>
	<path fill="url(#SVGID_5_)" d="M1186.264,5.248l112.303,5.045c0.121,0.005,0.215,0.108,0.21,0.229
		c-0.006,0.114-0.098,0.204-0.21,0.209l-112.303,5.045c-2.907,0.131-5.37-2.12-5.501-5.027c-0.13-2.908,2.121-5.37,5.028-5.501
		C1185.946,5.241,1186.11,5.242,1186.264,5.248z"/>
</g>
<g id="Layer_7">
	<g>
		<g>
			<path fill="#8DE1FD" d="M-226.808-232.625c-9.154,5.522-18.807,6.355-21.52,1.858s2.525-12.648,11.678-18.17
				c9.153-5.522,18.807-6.355,21.52-1.858C-212.417-246.298-217.656-238.147-226.808-232.625z M-236.234-248.248
				c-8.379,5.055-13.176,12.517-10.691,16.634s11.322,3.354,19.701-1.701c8.379-5.055,13.176-12.518,10.691-16.635
				C-219.016-254.066-227.854-253.303-236.234-248.248z"/>
		</g>
		<g>
			<path fill="#8DE1FD" d="M-223.906-227.813c-14.553,8.78-29.902,10.106-34.217,2.955s4.016-20.111,18.57-28.891
				c14.553-8.78,29.903-10.106,34.217-2.956C-201.021-249.554-209.352-236.593-223.906-227.813z M-238.892-252.653
				c-13.323,8.038-20.949,19.903-17,26.45c3.949,6.547,18.002,5.333,31.326-2.705c13.324-8.039,20.95-19.904,17-26.451
				C-211.515-261.906-225.568-260.692-238.892-252.653z"/>
		</g>
		<g>
			<path fill="#8DE1FD" d="M-221.001-223c-19.955,12.039-41.001,13.856-46.916,4.052c-5.915-9.805,5.507-27.575,25.461-39.613
				c19.955-12.039,41.001-13.856,46.916-4.052S-201.046-235.039-221.001-223z M-241.55-257.059
				c-18.268,11.021-28.725,27.29-23.31,36.266c5.415,8.976,24.683,7.312,42.951-3.709c18.269-11.021,28.726-27.291,23.311-36.266
				C-204.013-269.745-223.281-268.081-241.55-257.059z"/>
		</g>
		<g>
			<path fill="#8DE1FD" d="M-218.099-218.188c-25.354,15.297-52.098,17.606-59.613,5.148s6.998-35.038,32.353-50.335
				c25.356-15.297,52.099-17.607,59.614-5.149C-178.229-256.065-192.744-233.485-218.099-218.188z M-244.208-261.465
				c-23.212,14.004-36.498,34.676-29.617,46.081c6.881,11.406,31.363,9.292,54.575-4.713c23.212-14.004,36.5-34.676,29.619-46.082
				S-220.996-275.469-244.208-261.465z"/>
		</g>
		<g>
			<path fill="#8DE1FD" d="M-215.195-213.375c-30.756,18.555-63.195,21.357-72.313,6.245c-9.117-15.111,8.488-42.501,39.244-61.057
				s63.195-21.357,72.313-6.245C-166.833-259.321-184.439-231.931-215.195-213.375z M-246.866-265.871
				c-28.157,16.987-44.274,42.063-35.928,55.897s38.044,11.27,66.2-5.717c28.158-16.987,44.275-42.063,35.93-55.897
				C-189.011-285.423-218.708-282.858-246.866-265.871z"/>
		</g>
	</g>
	<g>
		<g>
			<path fill="#8DE1FD" d="M1440.096,39.316c-9.152,5.522-18.806,6.355-21.52,1.858c-2.713-4.497,2.526-12.648,11.679-18.17
				c9.153-5.522,18.807-6.356,21.52-1.859C1454.488,25.643,1449.249,33.794,1440.096,39.316z M1430.671,23.694
				c-8.379,5.055-13.176,12.518-10.691,16.634c2.483,4.117,11.321,3.354,19.7-1.701c8.38-5.055,13.177-12.518,10.692-16.635
				C1447.889,17.875,1439.051,18.639,1430.671,23.694z"/>
		</g>
		<g>
			<path fill="#8DE1FD" d="M1442.999,44.129c-14.554,8.78-29.903,10.105-34.217,2.955c-4.314-7.15,4.016-20.111,18.569-28.891
				s29.904-10.106,34.218-2.956C1465.884,22.388,1457.553,35.349,1442.999,44.129z M1428.013,19.288
				c-13.323,8.038-20.95,19.904-17.001,26.45c3.95,6.546,18.003,5.333,31.326-2.705c13.324-8.039,20.951-19.904,17.002-26.451
				C1455.39,10.036,1441.337,11.25,1428.013,19.288z"/>
		</g>
		<g>
			<path fill="#8DE1FD" d="M1445.902,48.941c-19.954,12.039-41,13.855-46.915,4.051s5.507-27.575,25.461-39.613
				c19.955-12.039,41.001-13.856,46.916-4.052C1477.279,19.132,1465.857,36.902,1445.902,48.941z M1425.354,14.882
				c-18.268,11.021-28.725,27.29-23.31,36.266c5.415,8.976,24.683,7.312,42.951-3.709c18.269-11.021,28.726-27.291,23.311-36.267
				C1462.892,2.197,1443.624,3.861,1425.354,14.882z"/>
		</g>
		<g>
			<path fill="#8DE1FD" d="M1448.806,53.754c-25.354,15.296-52.098,17.606-59.613,5.148c-7.517-12.458,6.997-35.038,32.353-50.335
				s52.099-17.607,59.614-5.149C1488.676,15.876,1474.161,38.457,1448.806,53.754z M1422.696,10.477
				c-23.212,14.004-36.499,34.676-29.618,46.081s31.363,9.291,54.576-4.713c23.212-14.004,36.5-34.676,29.619-46.082
				S1445.909-3.528,1422.696,10.477z"/>
		</g>
		<g>
			<path fill="#8DE1FD" d="M1451.709,58.566c-30.756,18.555-63.194,21.356-72.312,6.245c-9.117-15.112,8.488-42.502,39.244-61.057
				c30.757-18.556,63.195-21.357,72.313-6.246C1500.071,12.621,1482.466,40.011,1451.709,58.566z M1420.039,6.071
				c-28.157,16.987-44.274,42.062-35.928,55.896c8.346,13.835,38.044,11.271,66.201-5.717s44.274-42.063,35.928-55.897
				S1448.196-10.917,1420.039,6.071z"/>
		</g>
	</g>
</g>
<g id="Layer_6">
	<g>
		<g>
			<linearGradient id="SVGID_6_" gradientUnits="userSpaceOnUse" x1="1124.8809" y1="-105.4785" x2="1160.5795" y2="-68.2107">
				<stop  offset="0.0081" style="stop-color:#FFFFFF"/>
				<stop  offset="1" style="stop-color:#FFFFFF;stop-opacity:0"/>
			</linearGradient>
			<circle fill="url(#SVGID_6_)" cx="1140.236" cy="-89.449" r="24.192"/>
			<g>
				<g>
					<linearGradient id="SVGID_7_" gradientUnits="userSpaceOnUse" x1="1128.0313" y1="-102.3818" x2="1156.8329" y2="-72.3142">
						<stop  offset="0" style="stop-color:#61C6F2"/>
						<stop  offset="0.167" style="stop-color:#58BBEB"/>
						<stop  offset="0.4572" style="stop-color:#409FDA"/>
						<stop  offset="0.834" style="stop-color:#1971BE"/>
						<stop  offset="0.8936" style="stop-color:#1269B9"/>
					</linearGradient>
					<circle fill="url(#SVGID_7_)" cx="1140.419" cy="-89.449" r="19.518"/>
					<g opacity="0.53">
						<path fill="#5A9CD4" d="M1147.32-109.58c0.84,3.336-0.586,7.124-3.418,9.078c-2.179,1.504-5.058,2.001-6.814,3.982
							c-1.286,1.451-1.73,3.445-2.086,5.351c-0.356,1.907-0.702,3.899-1.855,5.458c-1.154,1.559-3.397,2.506-5.089,1.557
							c-1.447-0.813-1.965-2.653-2-4.312s0.27-3.348-0.111-4.963c-0.284-1.203-0.932-2.281-1.521-3.367
							c-0.59-1.085-1.142-2.238-1.204-3.472c-0.127-2.501,1.044-4.38,3.131-5.668c1.763-1.087,4.251-2.454,6.193-3.011
							c-0.405,1.004-1.189,1.807-1.397,2.939c-0.208,1.135,0.223,2.475,1.276,2.944c0.831,0.369,1.804,0.118,2.632-0.257
							c2.622-1.191,4.635-3.648,5.284-6.455L1147.32-109.58z"/>
						<path fill="#5A9CD4" d="M1149.612-104.623c-0.802,1.394-1.106,3.021-1.517,4.584c-0.411,1.564-0.982,3.167-2.157,4.245
							c-1.295,1.188-3.103,1.547-4.633,2.388c-1.626,0.894-3.158,2.976-3.411,7.313c-0.182,3.119,2.914,5.341,5.7,4.101
							c7.263-3.234,16.728-10.91,13.234-22.252C1155.792-107.614,1151.736-108.313,1149.612-104.623z"/>
						<path fill="#5A9CD4" d="M1119.135-94.908c1.285-0.5,2.152,0.01,2.761,1.248c0.609,1.238,0.589,2.677,0.612,4.056
							c0.072,4.396,1.58,8.738,5.808,10.749c2.918,1.388,6.039,2.24,9.283,2.315c9.375,0.219,20.422-7.427,21.569-17.168
							c0.086-0.727,0.346-2.007,0.075-2.702c2.108,5.409,2.604,9.169,0.057,14.387c-1.048,2.147-2.642,3.999-4.642,5.305
							c-13.87,9.055-25.64,3.912-28.561,1.75c-2.921-2.163-4.513-5.455-5.776-8.862
							C1119.058-87.239,1118.581-91.189,1119.135-94.908z"/>
					</g>
					<circle fill="none" cx="1140.419" cy="-89.449" r="19.518"/>
				</g>
				
					<linearGradient id="SVGID_8_" gradientUnits="userSpaceOnUse" x1="1105.8789" y1="-20.0459" x2="1112.3733" y2="-8.2749" gradientTransform="matrix(1.0867 -0.0677 0.0734 1.1791 -68.8008 -4.3457)">
					<stop  offset="0" style="stop-color:#FFFFFF"/>
					<stop  offset="1" style="stop-color:#FFFFFF;stop-opacity:0"/>
				</linearGradient>
				<path opacity="0.7" fill="url(#SVGID_8_)" d="M1144.775-103.297c-2.306-2.963-8.122-1.767-12.99,2.672
					s-6.946,10.44-4.641,13.403s8.122,1.767,12.99-2.672C1145.004-94.333,1147.081-100.334,1144.775-103.297z"/>
				<g opacity="0.49">
					<path fill="#C4C4C4" d="M1145.882-108.186c5.874,3.364,9.834,9.689,9.834,16.943c0,10.779-8.737,19.517-19.517,19.517
						c-1.897,0-3.729-0.276-5.464-0.781c2.854,1.635,6.158,2.574,9.684,2.574c10.779,0,19.518-8.738,19.518-19.517
						C1159.937-98.331,1154.001-105.822,1145.882-108.186z"/>
				</g>
			</g>
		</g>
		<g>
			<g>
				<g>
					<g>
						<linearGradient id="SVGID_9_" gradientUnits="userSpaceOnUse" x1="1332.709" y1="-66.8027" x2="1395.1765" y2="-4.3352">
							<stop  offset="0.0081" style="stop-color:#FFFFFF"/>
							<stop  offset="1" style="stop-color:#FFFFFF;stop-opacity:0"/>
						</linearGradient>
						<path fill="url(#SVGID_9_)" d="M1358.975-2.736c-20.845,0-37.804-16.958-37.804-37.803s16.959-37.802,37.804-37.802
							c20.844,0,37.802,16.957,37.802,37.802S1379.818-2.736,1358.975-2.736z"/>
						<linearGradient id="SVGID_10_" gradientUnits="userSpaceOnUse" x1="1329.793" y1="-40.5381" x2="1388.1543" y2="-40.5381">
							<stop  offset="0" style="stop-color:#FEE62A"/>
							<stop  offset="0.1378" style="stop-color:#FDD82B"/>
							<stop  offset="0.3964" style="stop-color:#F9B42C"/>
							<stop  offset="0.7453" style="stop-color:#F37B2F"/>
							<stop  offset="0.9911" style="stop-color:#EF4E31"/>
						</linearGradient>
						<circle fill="url(#SVGID_10_)" cx="1358.974" cy="-40.538" r="29.181"/>
						<path opacity="0.56" fill="#D48024" d="M1340.671-30.031c2.72-2.204,6.334-2.974,9.829-3.173
							c3.494-0.199,7.013,0.102,10.492-0.278c1.719-0.188,3.458-0.556,4.936-1.452c1.479-0.897,2.67-2.397,2.843-4.117
							c0.28-2.781-2.229-5.252-4.965-5.821c-2.737-0.568-5.563,0.317-8.123,1.44c-2.56,1.123-5.051,2.507-7.8,3.016
							c-3.868,0.716-7.747-0.405-11.257-1.988c-1.921-0.866-4.135-2.573-6.393-3.162c-0.284,1.634-0.44,3.313-0.44,5.028
							c0,5.763,1.677,11.131,4.561,15.655c0.025-0.008,0.051-0.013,0.076-0.021C1337.002-25.775,1338.561-28.321,1340.671-30.031z"
							/>
						<path opacity="0.56" fill="#D48024" d="M1383.687-34.781c-6.863,4.518-14.941,7.207-23.158,7.566
							c-1.211,0.053-2.464,0.066-3.567,0.569s-2.02,1.654-1.817,2.85c0.315,1.87,2.775,2.34,4.668,2.225
							c9.342-0.564,18.075-4.599,26.486-8.713c0.937-2.496,1.537-5.154,1.756-7.92C1386.388-37.171,1384.767-35.492,1383.687-34.781
							z"/>
						<path opacity="0.56" fill="#D48024" d="M1345.684-45.677c6.696-0.065,13.068-2.689,19.246-5.272
							c0.664-0.277,1.403-0.635,1.608-1.325c0.337-1.13-0.997-2.04-2.152-2.279c-6.279-1.302-12.438,4.428-18.718,3.126
							c-3.969-0.823-6.859-4.255-10.553-5.902c-1.38,1.957-2.525,4.089-3.395,6.36c0.886,0.851,1.777,1.559,2.358,1.955
							C1337.446-46.72,1341.632-45.638,1345.684-45.677z"/>
						<path opacity="0.56" fill="#D48024" d="M1372.025-48.716c-0.835,1.042-1.512,2.277-1.581,3.611
							c-0.069,1.334,0.592,2.765,1.814,3.301c1.361,0.598,2.965-0.035,4.137-0.95c1.172-0.915,2.123-2.11,3.391-2.886
							c1.52-0.929,3.35-1.172,5.123-1.332c0.819-0.074,1.648-0.143,2.466-0.259c-0.643-2.735-1.668-5.321-3.02-7.7
							c-1.851,0.382-3.492,0.88-4.335,1.143C1376.962-52.837,1374.027-51.217,1372.025-48.716z"/>
						<path opacity="0.56" fill="#D48024" d="M1347.213-57.967c4.091,0.845,8.318,0.609,12.489,0.37
							c4.978-0.287,10.101-0.609,14.6-2.758c1.108-0.529,2.26-1.284,2.569-2.473c0.062-0.235,0.081-0.468,0.068-0.696
							c-1.434-1.123-2.975-2.113-4.606-2.955c-1.466,0.199-2.875,0.88-4.261,1.461c-7.861,3.292-17.037,3.23-24.892-0.053
							c-1.479,0.954-2.866,2.036-4.146,3.234c0.085,0.076,0.162,0.143,0.226,0.197C1341.513-59.734,1344.344-58.56,1347.213-57.967z
							"/>
						<path opacity="0.56" fill="#D48024" d="M1348.082-21.337c1.196-0.368,2.351-1.408,2.223-2.653c-0.11-1.07-1.161-1.852-2.227-2
							s-2.133,0.195-3.138,0.579c-2.833,1.083-5.248,2.72-7.873,4.141c0.918,1.042,1.908,2.018,2.965,2.921
							c1.322-1.037,2.679-2.021,4.347-2.409C1345.597-21.042,1346.887-20.969,1348.082-21.337z"/>
						<path opacity="0.56" fill="#D48024" d="M1365.744-17.901c-0.056-0.651-0.636-1.161-1.265-1.338
							c-0.628-0.177-1.298-0.09-1.943,0.01c-5.541,0.864-10.722,2.725-15.714,5.22c2.178,1,4.499,1.737,6.926,2.176
							c3.325-1.33,6.65-2.66,9.975-3.989C1364.688-16.208,1365.832-16.865,1365.744-17.901z"/>
						<path opacity="0.8" fill="#969499" d="M1358.974-69.719c-0.658,0-1.309,0.03-1.956,0.073
							c12.05,3.59,20.838,14.748,20.838,27.964c0,15.458-12.021,28.101-27.225,29.108c2.644,0.788,5.442,1.217,8.343,1.217
							c16.116,0,29.181-13.065,29.181-29.181S1375.09-69.719,1358.974-69.719z"/>
					</g>
				</g>
				
					<linearGradient id="SVGID_11_" gradientUnits="userSpaceOnUse" x1="1296.5381" y1="24.9063" x2="1306.7743" y2="43.4593" gradientTransform="matrix(1.0867 -0.0677 0.0734 1.1791 -68.8008 -4.3457)">
					<stop  offset="0" style="stop-color:#FFFFFF"/>
					<stop  offset="1" style="stop-color:#FFFFFF;stop-opacity:0"/>
				</linearGradient>
				<path opacity="0.7" fill="url(#SVGID_11_)" d="M1362.922-63.458c-3.635-4.671-12.802-2.786-20.477,4.212
					c-7.674,6.997-10.948,16.456-7.314,21.127c3.635,4.671,12.803,2.786,20.477-4.211
					C1363.281-49.329,1366.557-58.787,1362.922-63.458z"/>
			</g>
			<g>
				<linearGradient id="SVGID_12_" gradientUnits="userSpaceOnUse" x1="1001.0039" y1="180.0283" x2="1104.6074" y2="288.1859">
					<stop  offset="0.0081" style="stop-color:#FFFFFF"/>
					<stop  offset="1" style="stop-color:#FFFFFF;stop-opacity:0"/>
				</linearGradient>
				<circle fill="url(#SVGID_12_)" cx="1045.569" cy="226.552" r="70.208"/>
				<g>
					<g>
						<linearGradient id="SVGID_13_" gradientUnits="userSpaceOnUse" x1="1010.1494" y1="189.0181" x2="1093.7325" y2="276.2753">
							<stop  offset="0" style="stop-color:#61C6F2"/>
							<stop  offset="0.167" style="stop-color:#58BBEB"/>
							<stop  offset="0.4572" style="stop-color:#409FDA"/>
							<stop  offset="0.834" style="stop-color:#1971BE"/>
							<stop  offset="0.8936" style="stop-color:#1269B9"/>
						</linearGradient>
						<circle fill="url(#SVGID_13_)" cx="1046.1" cy="226.551" r="56.641"/>
						<g opacity="0.53">
							<path fill="#5A9CD4" d="M1066.129,168.126c2.438,9.684-1.701,20.675-9.918,26.348c-6.323,4.365-14.681,5.807-19.777,11.556
								c-3.734,4.212-5.022,9.997-6.055,15.53c-1.033,5.533-2.038,11.314-5.386,15.84c-3.347,4.524-9.86,7.273-14.767,4.517
								c-4.199-2.358-5.701-7.699-5.805-12.514c-0.103-4.815,0.783-9.716-0.324-14.403c-0.824-3.489-2.701-6.62-4.413-9.771
								c-1.711-3.15-3.311-6.494-3.493-10.076c-0.368-7.259,3.028-12.711,9.088-16.449c5.113-3.154,12.334-7.122,17.973-8.738
								c-1.176,2.914-3.453,5.242-4.055,8.528c-0.604,3.294,0.645,7.184,3.703,8.545c2.41,1.072,5.235,0.344,7.637-0.747
								c7.611-3.456,13.451-10.588,15.337-18.731L1066.129,168.126z"/>
							<path fill="#5A9CD4" d="M1072.781,182.514c-2.328,4.045-3.213,8.765-4.403,13.305c-1.19,4.539-2.851,9.189-6.26,12.318
								c-3.759,3.448-9.005,4.488-13.444,6.931c-4.719,2.594-9.166,8.636-9.9,21.224c-0.527,9.053,8.458,15.501,16.543,11.9
								c21.077-9.385,48.545-31.662,38.408-64.579C1090.713,173.834,1078.943,171.806,1072.781,182.514z"/>
							<path fill="#5A9CD4" d="M984.33,210.706c3.731-1.451,6.246,0.029,8.014,3.622c1.768,3.592,1.709,7.768,1.775,11.771
								c0.211,12.757,4.586,25.357,16.854,31.194c8.469,4.029,17.527,6.502,26.941,6.722c27.207,0.636,59.269-21.557,62.599-49.824
								c0.249-2.109,1.004-5.824,0.217-7.843c6.12,15.698,7.557,26.612,0.166,41.753c-3.042,6.23-7.667,11.604-13.472,15.395
								c-40.252,26.279-74.409,11.353-82.887,5.077c-8.477-6.275-13.096-15.829-16.762-25.719
								C984.107,232.965,982.723,221.499,984.33,210.706z"/>
						</g>
						<circle fill="none" cx="1046.1" cy="226.551" r="56.641"/>
					</g>
					
						<linearGradient id="SVGID_14_" gradientUnits="userSpaceOnUse" x1="987.2686" y1="219.5254" x2="1006.1149" y2="253.6844" gradientTransform="matrix(1.0867 -0.0677 0.0734 1.1791 -68.8008 -4.3457)">
						<stop  offset="0" style="stop-color:#FFFFFF"/>
						<stop  offset="1" style="stop-color:#FFFFFF;stop-opacity:0"/>
					</linearGradient>
					<path opacity="0.7" fill="url(#SVGID_14_)" d="M1058.743,186.36c-6.691-8.6-23.57-5.128-37.7,7.754
						c-14.129,12.884-20.158,30.299-13.467,38.898c6.692,8.601,23.57,5.129,37.7-7.754S1065.436,194.961,1058.743,186.36z"/>
					<g opacity="0.49">
						<path fill="#C4C4C4" d="M1061.955,172.175c17.046,9.764,28.539,28.119,28.539,49.171c0,31.282-25.359,56.642-56.641,56.642
							c-5.506,0-10.822-0.801-15.855-2.267c8.283,4.745,17.871,7.471,28.102,7.471c31.283,0,56.642-25.358,56.642-56.641
							C1102.741,200.774,1085.518,179.034,1061.955,172.175z"/>
					</g>
				</g>
			</g>
			<g>
				<linearGradient id="SVGID_15_" gradientUnits="userSpaceOnUse" x1="1184.4434" y1="328.0439" x2="1507.0156" y2="328.0439">
					<stop  offset="0.0081" style="stop-color:#FFFFFF"/>
					<stop  offset="1" style="stop-color:#FFFFFF;stop-opacity:0"/>
				</linearGradient>
				<circle fill="url(#SVGID_15_)" cx="1345.729" cy="328.044" r="161.286"/>
				<g>
					<linearGradient id="SVGID_16_" gradientUnits="userSpaceOnUse" x1="1273.2686" y1="237.5361" x2="1432.0702" y2="435.8948">
						<stop  offset="0" style="stop-color:#FEE62A"/>
						<stop  offset="0.1378" style="stop-color:#FDD82B"/>
						<stop  offset="0.3964" style="stop-color:#F9B42C"/>
						<stop  offset="0.7453" style="stop-color:#F37B2F"/>
						<stop  offset="0.9911" style="stop-color:#EF4E31"/>
					</linearGradient>
					<circle fill="url(#SVGID_16_)" cx="1346.328" cy="328.794" r="138.354"/>
					<path opacity="0.33" fill="#EF4E31" d="M1325.322,200.648c-2.788,1.768-5.609,4.613-4.982,7.854
						c0.635,3.275,4.356,4.843,7.613,5.568c9.055,2.016,18.605,1.76,27.54-0.737c2.014-0.563,4.04-1.261,5.689-2.546
						s2.882-3.261,2.803-5.351c-0.24-6.363-10.063-9.615-15.084-10.163C1340.74,194.384,1332.268,196.246,1325.322,200.648z"/>
					<path opacity="0.33" fill="#EF4E31" d="M1323.976,250.076c-1.679,1.234-3.223,2.752-4.051,4.664
						c-0.829,1.912-0.833,4.272,0.383,5.965c1.942,2.706,5.922,2.721,9.21,2.187c3.564-0.578,7.077-1.479,10.48-2.687
						c2.798-0.993,5.686-2.327,7.283-4.83c3.355-5.255-1.402-8.635-5.98-9.341C1335.257,245.104,1328.938,246.429,1323.976,250.076z
						"/>
					<path opacity="0.33" fill="#EF4E31" d="M1331.524,296.118c1.451,1.48,3.778,1.657,5.832,1.374
						c5.802-0.799,11.165-9.384,3.39-11.571C1335.805,284.531,1326.461,290.956,1331.524,296.118z"/>
					<path opacity="0.33" fill="#EF4E31" d="M1351.398,236.496c1.451,1.48,3.778,1.657,5.833,1.374
						c5.801-0.799,11.164-9.384,3.389-11.571C1355.68,224.909,1346.335,231.334,1351.398,236.496z"/>
					<path opacity="0.33" fill="#EF4E31" d="M1397.487,308.999c-0.908,2.822-0.526,6.414,1.955,8.036
						c1.576,1.029,3.619,1.021,5.466,0.651c2.562-0.513,5.035-1.686,6.832-3.582c1.797-1.896,2.854-4.555,2.545-7.148
						C1412.932,295.62,1399.825,301.729,1397.487,308.999z"/>
					<path opacity="0.33" fill="#EF4E31" d="M1357.152,291.955c-4.125,4.735-5.309,11.339-5.584,17.612
						c-0.3,6.822,0.283,13.684,1.729,20.358c1.204,5.555,3.607,11.652,8.914,13.688c3.998,1.533,8.668,0.196,12.03-2.456
						c3.362-2.65,5.63-6.435,7.552-10.261c3.805-7.575,6.598-16.066,5.336-24.449C1385.213,293.718,1368.4,279.046,1357.152,291.955
						z"/>
					<path opacity="0.33" fill="#EF4E31" d="M1285.819,284.27c-4.278,5.517-6.836,12.665-5.646,19.543s6.682,13.157,13.605,14.05
						c4.212,0.543,8.501-0.87,12.068-3.174c7.256-4.687,11.848-13.236,11.747-21.873c-0.083-7.137-4.082-18.323-11.937-20.281
						C1298.165,270.666,1289.902,279.005,1285.819,284.27z"/>
					<path opacity="0.33" fill="#EF4E31" d="M1271.467,223.31c-8.938,6.064-15.498,15.542-18.023,26.044
						c-1.129,4.696-1.1,10.485,2.77,13.377c3.942,2.945,9.54,1.232,13.998-0.854c9.994-4.679,19.346-10.729,27.71-17.929
						c3.939-3.391,7.786-7.228,9.486-12.139c2.465-7.125-0.757-15.299-8.551-15.991
						C1289.39,214.977,1279.267,218.019,1271.467,223.31z"/>
					<path opacity="0.33" fill="#EF4E31" d="M1397.132,338.381c-3.665,2.556-5.96,6.619-7.86,10.663
						c-4.198,8.938-7.077,18.495-8.516,28.265c-0.751,5.109-0.995,10.741,1.935,14.993c2.334,3.388,6.427,5.319,10.531,5.605
						c4.104,0.285,8.203-0.932,11.852-2.833c9.787-5.101,16.646-15.429,17.55-26.429c0.719-8.759-2.353-17.54-7.988-24.221
						C1409.793,338.685,1405.312,332.678,1397.132,338.381z"/>
					<path opacity="0.33" fill="#EF4E31" d="M1336.297,382.918c-1.165,1.577-2.169,3.33-2.518,5.26
						c-0.348,1.931,0.042,4.066,1.372,5.508c1.454,1.575,3.797,2.08,5.92,1.787c2.124-0.293,4.084-1.273,5.97-2.294
						c3.874-2.096,7.684-4.47,10.607-7.765c4.564-5.146,6.449-13.694-3.006-12.926
						C1347.529,373.065,1340.505,377.224,1336.297,382.918z"/>
					<path opacity="0.33" fill="#EF4E31" d="M1311.946,323.923c-1.082,4.604,1.259,9.592,5.058,12.41
						c3.799,2.817,8.789,3.674,13.494,3.188c8.147-0.842,17.153-8.063,13.36-17.139c-2.989-7.153-14.242-9.033-20.948-7.774
						C1318.021,315.525,1313.138,318.854,1311.946,323.923z"/>
					<path opacity="0.33" fill="#EF4E31" d="M1309.595,375.597c1.306,2.11,4.106,3.021,6.523,2.46
						c5.479-1.273,9.552-10.199,3.36-13.39C1313.774,361.729,1306.25,370.19,1309.595,375.597z"/>
					<path opacity="0.33" fill="#EF4E31" d="M1430.636,341.391c0.033,0.924,0.488,1.875,1.31,2.301
						c3.05,1.577,9.521-4.596,6.536-7.68C1435.011,332.426,1430.504,337.824,1430.636,341.391z"/>
					<path opacity="0.33" fill="#EF4E31" d="M1433.42,296.083c-2.36,0.855-4.804,2.661-4.805,5.171c0,2.481,2.35,4.254,4.537,5.425
						c2.693,1.442,5.609,2.643,8.664,2.726c3.054,0.084,6.278-1.125,7.981-3.662C1456.522,295.727,1438.843,294.116,1433.42,296.083
						z"/>
					<path opacity="0.33" fill="#EF4E31" d="M1368.025,240.604c-5.262,6.757-4.936,16.869-0.362,24.109
						c4.573,7.239,12.718,11.731,21.141,13.274c5.994,1.099,12.821,0.601,17.22-3.617c5.338-5.118,5.115-14.098,1.51-20.555
						C1400.763,241.689,1379.962,225.278,1368.025,240.604z"/>
					<path opacity="0.33" fill="#EF4E31" d="M1404.294,214.389c-2.938,0.299-5.919,2.421-6.144,5.366
						c-0.254,3.345,2.95,5.926,6.078,7.135c2.433,0.94,5.128,1.452,7.655,0.811c2.527-0.641,4.82-2.633,5.246-5.205
						C1418.111,216.575,1408.581,213.954,1404.294,214.389z"/>
					<path opacity="0.33" fill="#EF4E31" d="M1424.606,238.092c-2.593,3.49-1.543,8.423,0.03,12.476
						c2.647,6.819,6.467,13.183,11.241,18.725c2.474,2.871,5.548,5.688,9.328,5.949c4.141,0.286,8.026-2.823,9.479-6.712
						C1458.852,257.377,1436.069,222.659,1424.606,238.092z"/>
					<path opacity="0.33" fill="#EF4E31" d="M1456.846,337.519c0.609,2.508,2.804,4.668,5.379,4.84
						c3.295,0.219,6.01-2.604,7.549-5.525c2.194-4.167,1.688-11.327-4.526-11.15
						C1460.159,325.826,1455.729,332.922,1456.846,337.519z"/>
					<path opacity="0.33" fill="#EF4E31" d="M1450.97,384.215c1.753,1.452,4.328,1.594,6.474,0.833
						c8.451-2.996,17.621-18.845,5.552-23.249C1452.616,358.011,1443.618,378.124,1450.97,384.215z"/>
					<path opacity="0.33" fill="#EF4E31" d="M1413.119,419.773c-0.77,9.118,5.811,18.574,14.829,20.124
						c5.554,0.953,11.215-0.904,16.282-3.368c9.494-4.617,20.821-15.767,14.063-27.101c-6.387-10.713-23.97-12.585-33.927-6.69
						C1418.318,406.319,1413.719,412.666,1413.119,419.773z"/>
					<path opacity="0.33" fill="#EF4E31" d="M1352.125,426.316c-2.795,2.172-5.419,5.013-5.845,8.527
						c-0.584,4.819,3.405,9.314,8.059,10.698c4.652,1.385,9.689,0.303,14.234-1.402c3.325-1.248,6.583-2.865,9.132-5.339
						c5.288-5.132,6.097-15.837-1.634-19.202C1368.561,416.328,1357.894,421.836,1352.125,426.316z"/>
					<path opacity="0.33" fill="#EF4E31" d="M1319.402,408.733c-2.574-0.746-5.654-0.373-7.452,1.614
						c-2.271,2.51-1.718,6.422-0.758,9.667c1.008,3.408,2.338,6.775,4.48,9.611s5.179,5.115,8.668,5.794
						c3.489,0.678,7.412-0.456,9.587-3.268c2.396-3.099,2.272-7.608,0.594-11.147
						C1331.885,415.448,1325.28,410.436,1319.402,408.733z"/>
					<path opacity="0.33" fill="#EF4E31" d="M1268.438,374.271c4.461,6.03,11.541,10.747,19.015,10.103
						c9.102-0.785,16.072-9.622,16.95-18.716c0.879-9.093-3.189-18.046-8.78-25.271c-2.992-3.867-6.566-7.47-11.067-9.38
						C1258.984,320.152,1258.895,361.37,1268.438,374.271z"/>
					<path opacity="0.33" fill="#EF4E31" d="M1247.267,322.953c3.534,1.095,7.345-0.8,10.056-3.318
						c6.871-6.384,6.769-22.58-5.793-18.951C1243.433,303.022,1236.299,319.557,1247.267,322.953z"/>
					<path opacity="0.33" fill="#EF4E31" d="M1202.191,286.468c-0.447,4.867-0.299,9.925,1.617,14.422
						c1.916,4.496,5.875,8.347,10.709,9.068c6.856,1.023,13.017-4.185,17.389-9.565c4.741-5.835,8.735-12.488,10.224-19.858
						c1.488-7.369,0.194-15.545-4.637-21.306C1218.002,235.984,1203.64,270.707,1202.191,286.468z"/>
					<path opacity="0.33" fill="#EF4E31" d="M1239.313,397.46c-5.294-1.566-11.724-2.065-15.664,1.801
						c-4.005,3.932-3.537,10.492-2,15.89c4.377,15.366,15.332,28.739,29.537,36.054c7.035,3.623,16.527,5.427,22.18-0.111
						c8.504-8.332,0.875-22.684-3.853-31.068C1263.334,409.067,1251.173,400.971,1239.313,397.46z"/>
					<path opacity="0.33" fill="#EF4E31" d="M1280.275,410.02c1.923,3,6.396,3.989,9.404,2.079s4.018-6.378,2.121-9.396
						c-1.897-3.018-6.361-4.045-9.387-2.162c-3.025,1.884-4.073,6.343-2.202,9.377"/>
					<path opacity="0.33" fill="#EF4E31" d="M1234.053,374.474c2.269,2.413,5.853,4.431,8.767,2.855
						c2.542-1.374,3.15-4.72,3.196-7.609c0.066-4.264-0.466-8.536-1.577-12.653c-1.82-6.741-9.349-14.332-14.952-6.391
						C1224.579,357.632,1228.941,369.035,1234.053,374.474z"/>
					
						<linearGradient id="SVGID_17_" gradientUnits="userSpaceOnUse" x1="1209.0703" y1="260.2295" x2="1257.5244" y2="348.0525" gradientTransform="matrix(1.0867 -0.0677 0.0734 1.1791 -68.8008 -4.3457)">
						<stop  offset="0" style="stop-color:#FFFFFF"/>
						<stop  offset="1" style="stop-color:#FFFFFF;stop-opacity:0"/>
					</linearGradient>
					<path opacity="0.83" fill="url(#SVGID_17_)" d="M1363.35,217.3c-17.204-22.111-60.599-13.186-96.925,19.936
						c-36.326,33.122-51.828,77.896-34.623,100.007c17.204,22.111,60.599,13.187,96.925-19.936
						C1365.054,284.185,1380.554,239.411,1363.35,217.3z"/>
					<g opacity="0.46">
						<path fill="#969499" d="M1390.471,197.634c31.791,25.35,52.17,64.406,52.17,108.229c0,76.41-61.943,138.354-138.354,138.354
							c-15.436,0-30.279-2.53-44.144-7.194c23.643,18.853,53.596,30.126,86.185,30.126c76.411,0,138.354-61.943,138.354-138.354
							C1484.683,267.818,1445.235,216.058,1390.471,197.634z"/>
					</g>
					<circle fill="none" cx="1346.328" cy="328.794" r="138.354"/>
				</g>
			</g>
			<g>
				<path fill="none" d="M1159.606-85.468c5.344-0.576,8.67-1.381,8.67-2.273c0-0.87-3.161-1.658-8.274-2.23
					c0.004,0.161,0.024,0.318,0.024,0.48C1160.026-88.111,1159.879-86.767,1159.606-85.468z"/>
				<path fill="none" d="M1121.059-90.128c-5.991,0.581-9.782,1.434-9.782,2.387c0,0.975,3.971,1.847,10.21,2.428
					c-0.294-1.348-0.46-2.743-0.46-4.178C1121.026-89.706,1121.052-89.915,1121.059-90.128z"/>
				<path fill="none" d="M1121.059-90.128c-0.007,0.213-0.032,0.422-0.032,0.637c0,1.436,0.166,2.831,0.46,4.178
					c4.95,0.46,11.327,0.738,18.29,0.738c7.71,0,14.699-0.341,19.83-0.893c0.272-1.299,0.42-2.644,0.42-4.023
					c0-0.162-0.021-0.319-0.024-0.48c-5.163-0.578-12.317-0.936-20.226-0.936C1132.609-90.908,1126.066-90.613,1121.059-90.128z"/>
				<path fill="none" d="M1122.287-82.644c2.774,7.387,9.883,12.653,18.239,12.653c8.398,0,15.535-5.319,18.28-12.765
					c-5.659,0.435-12.141,0.681-19.03,0.681C1133.504-82.075,1127.57-82.279,1122.287-82.644z"/>
				<path fill="none" d="M1159.748-92.65c-1.513-9.264-9.53-16.341-19.222-16.341c-9.65,0-17.643,7.017-19.203,16.223
					c5.522-0.408,11.795-0.639,18.453-0.639C1147.053-93.408,1153.869-93.131,1159.748-92.65z"/>
				<linearGradient id="SVGID_18_" gradientUnits="userSpaceOnUse" x1="1099.7764" y1="-87.4219" x2="1179.7764" y2="-87.4219">
					<stop  offset="0" style="stop-color:#FEE62A"/>
					<stop  offset="0.1378" style="stop-color:#FDD82B"/>
					<stop  offset="0.3964" style="stop-color:#F9B42C"/>
					<stop  offset="0.7453" style="stop-color:#F37B2F"/>
					<stop  offset="0.9911" style="stop-color:#EF4E31"/>
				</linearGradient>
				<path fill="url(#SVGID_18_)" d="M1159.748-92.65c0.143,0.875,0.231,1.768,0.254,2.679c5.113,0.572,8.274,1.36,8.274,2.23
					c0,0.892-3.326,1.698-8.67,2.273c-5.131,0.552-12.12,0.893-19.83,0.893c-6.963,0-13.34-0.278-18.29-0.738
					c-6.239-0.581-10.21-1.453-10.21-2.428c0-0.953,3.791-1.806,9.782-2.387c0.029-0.897,0.118-1.778,0.265-2.641
					c-12.801,0.945-21.547,2.841-21.547,5.027c0,2.241,9.185,4.178,22.511,5.097c5.283,0.365,11.217,0.569,17.489,0.569
					c6.89,0,13.371-0.247,19.03-0.681c12.488-0.959,20.97-2.832,20.97-4.985C1179.776-89.84,1171.716-91.671,1159.748-92.65z"/>
			</g>
		</g>
	</g>
</g>
<g id="Layer_5">
	<path fill="#F9FAFD" d="M401.06,255c-16.408,1-46.641-3-53.604-35.127c-3.379-15.591-4.457-32.372-12.875-46.011
		c-4.08-6.61-9.623-11.907-15.902-15.894c-39.836-25.301-82.621,20.699-131.955-5.967C113.3,112.312,142.058,24,0,0v566.871
		c39.835-25.301,13.345-75.494,53.179-100.795c39.834-25.299,66.324,24.896,106.158-0.402
		c39.834-25.301,13.344-75.495,53.18-100.794c39.836-25.301,66.326,24.894,106.162-0.407c14.34-9.106,21.371-23.853,24.867-41.089
		c3.166-15.617,4.17-26.225,14.67-38.05c17.168-19.334,43.008-17.733,43.756-18.5C403.056,265.722,403.397,254.857,401.06,255z"/>
</g>
<g id="Layer_4">
	<g>
		<g>
			<linearGradient id="SVGID_19_" gradientUnits="userSpaceOnUse" x1="-113.7861" y1="-297.0713" x2="3.8685" y2="-297.0713">
				<stop  offset="0" style="stop-color:#FEE62A"/>
				<stop  offset="0.1378" style="stop-color:#FDD82B"/>
				<stop  offset="0.3964" style="stop-color:#F9B42C"/>
				<stop  offset="0.7453" style="stop-color:#F37B2F"/>
				<stop  offset="0.9911" style="stop-color:#EF4E31"/>
			</linearGradient>
			<path fill="url(#SVGID_19_)" d="M2.802-311.23c-22.134-3.139-44.683-35.668-89.771-6.346c11.041-3.248,25.33-4.546,36.187,2.784
				c-6.402-0.278-25.19-5.01-62.999,17.72h-0.004l0.002,0.001l-0.002,0.001h0.004c37.809,22.73,56.597,17.999,62.999,17.721
				c-10.856,7.33-25.146,6.031-36.187,2.783c45.089,29.322,67.638-3.206,89.771-6.346V-311.23z"/>
			<linearGradient id="SVGID_20_" gradientUnits="userSpaceOnUse" x1="-69.9902" y1="-297.0654" x2="3.4678" y2="-297.0654">
				<stop  offset="0" style="stop-color:#F5E55E"/>
				<stop  offset="1" style="stop-color:#DA9231"/>
			</linearGradient>
			<path fill="url(#SVGID_20_)" d="M-69.99-297.813c0,0,28.672-19.97,72.792-13.418v28.318
				C2.802-282.912-37.144-274.986-69.99-297.813z"/>
			<linearGradient id="SVGID_21_" gradientUnits="userSpaceOnUse" x1="-50.1338" y1="-297.0654" x2="3.2861" y2="-297.0654">
				<stop  offset="0" style="stop-color:#F5EA91"/>
				<stop  offset="1" style="stop-color:#DA9231"/>
			</linearGradient>
			<path fill="url(#SVGID_21_)" d="M-50.134-297.558c0,0,20.851-13.169,52.936-8.849v18.674
				C2.802-287.732-26.247-282.506-50.134-297.558z"/>
		</g>
		<g>
			<path fill="#F9FAFD" d="M143.899-297.838L143.899-297.838l-0.745,0.02l0.745-0.037l0,0
				c-38.377-33.321-92.439-41.737-139.129-21.658l-8.313,3.575c-1.651,2.718-5.225,9.415-5.191,18.667
				c0.033,9.262,3.662,15.939,5.335,18.645c2.779,1.17,5.56,2.341,8.34,3.511C51.783-255.395,105.778-264.224,143.899-297.838z"/>
			<g>
				<path fill="#1285A2" d="M6.762-320.327c-0.663,0.272-1.33,0.53-1.99,0.814l-8.313,3.575c-1.652,2.718-5.226,9.416-5.192,18.667
					c0.033,9.262,3.662,15.939,5.335,18.645c2.779,1.17,5.56,2.341,8.34,3.511c0.662,0.279,1.331,0.531,1.996,0.8
					c-2.284-3.881-6.275-12.012-6.314-22.993C0.584-308.278,4.508-316.431,6.762-320.327z"/>
			</g>
			<g>
				<path fill="#5A9CD4" d="M116.462-297.747c0.026,6.851,1.873,12.529,3.763,16.56c8.371-4.611,16.32-10.166,23.675-16.65
					l-0.745,0.02l0.745-0.037l0,0c-7.405-6.43-15.397-11.923-23.804-16.471c-1.85,4.025-3.632,9.656-3.634,16.423
					C116.462-297.852,116.461-297.799,116.462-297.747z"/>
			</g>
			<g>
				<g>
					<path fill="#DCDDE0" d="M143.899-297.838l-0.745,0.02l0.745-0.037l0,0c-0.113-0.098-0.228-0.193-0.341-0.291l-152.286,0.583
						c-0.001,0.099-0.006,0.193-0.006,0.292c0.033,9.262,3.662,15.939,5.335,18.645c2.779,1.17,5.56,2.341,8.34,3.511
						C51.783-255.395,105.778-264.224,143.899-297.838z"/>
				</g>
				<g>
					<g>
						<path fill="#CACBCE" d="M143.99-297.896l-0.744,0.02l0.744-0.037l0,0c-0.112-0.098-0.228-0.193-0.341-0.291
							c-13.912,8.135-38.545,20.183-71.628,24.557c-32.963,4.358-59.794-0.821-75.329-5.037c2.78,1.17,5.561,2.341,8.34,3.511
							C51.874-255.452,105.87-264.281,143.99-297.896z"/>
					</g>
				</g>
			</g>
			<g>
				<g>
					<g>
						<path fill="#281C4B" d="M51.964-297.014c-0.027-7.041,5.68-12.791,12.72-12.818c7.041-0.027,12.791,5.679,12.817,12.72
							c0.027,7.04-5.679,12.79-12.72,12.817C57.741-284.268,51.99-289.974,51.964-297.014z"/>
						<path fill="#1285A2" d="M75.982-297.105c0.023,6.213-4.994,11.269-11.207,11.293c-6.213,0.023-11.269-4.994-11.293-11.207
							c-0.023-6.214,4.994-11.27,11.207-11.293C70.902-308.336,75.959-303.319,75.982-297.105 M79.02-297.118
							c-0.029-7.877-6.464-14.262-14.342-14.232s-14.263,6.464-14.232,14.342c0.03,7.878,6.464,14.263,14.342,14.232
							S79.05-289.239,79.02-297.118L79.02-297.118z"/>
					</g>
				</g>
				
					<linearGradient id="SVGID_22_" gradientUnits="userSpaceOnUse" x1="-601.8232" y1="-570.7002" x2="-601.8232" y2="-544.9424" gradientTransform="matrix(0.0068 0.9999 -0.9999 0.0068 -485.6567 308.4214)">
					<stop  offset="0" style="stop-color:#FFFFFF"/>
					<stop  offset="0.7422" style="stop-color:#FFFFFF;stop-opacity:0"/>
				</linearGradient>
				<circle fill="url(#SVGID_22_)" cx="64.7" cy="-297.112" r="8.098"/>
			</g>
			<g>
				<g>
					<g>
						<path fill="#281C4B" d="M85.658-296.44c-0.015-3.921,3.164-7.123,7.085-7.139c3.921-0.015,7.124,3.164,7.139,7.085
							s-3.163,7.123-7.084,7.139C88.876-289.341,85.674-292.519,85.658-296.44z"/>
						<path fill="#1285A2" d="M99.036-296.491c0.013,3.461-2.781,6.276-6.242,6.29c-3.46,0.013-6.276-2.781-6.289-6.242
							c-0.014-3.46,2.781-6.276,6.241-6.289C96.207-302.746,99.022-299.951,99.036-296.491 M100.728-296.498
							c-0.017-4.388-3.6-7.943-7.987-7.927c-4.388,0.017-7.944,3.601-7.928,7.988c0.018,4.388,3.601,7.943,7.988,7.927
							S100.744-292.109,100.728-296.498L100.728-296.498z"/>
					</g>
				</g>
				
					<linearGradient id="SVGID_23_" gradientUnits="userSpaceOnUse" x1="-601.0151" y1="-591.5742" x2="-601.0151" y2="-577.2285" gradientTransform="matrix(0.0068 0.9999 -0.9999 0.0068 -485.6567 308.4214)">
					<stop  offset="0" style="stop-color:#FFFFFF"/>
					<stop  offset="0.7422" style="stop-color:#FFFFFF;stop-opacity:0"/>
				</linearGradient>
				<circle fill="url(#SVGID_23_)" cx="92.752" cy="-296.495" r="4.51"/>
			</g>
			<g>
				<g>
					<g>
						<path fill="#281C4B" d="M28.908-297.82c-0.015-3.922,3.164-7.124,7.085-7.139s7.124,3.164,7.139,7.084
							s-3.163,7.124-7.084,7.139C32.126-290.721,28.924-293.899,28.908-297.82z"/>
						<path fill="#1285A2" d="M42.286-297.872c0.013,3.461-2.781,6.276-6.242,6.29c-3.46,0.013-6.276-2.781-6.289-6.242
							c-0.014-3.46,2.781-6.276,6.241-6.289C39.457-304.127,42.272-301.332,42.286-297.872 M43.978-297.879
							c-0.017-4.387-3.6-7.943-7.987-7.926c-4.388,0.017-7.944,3.6-7.928,7.988c0.018,4.388,3.601,7.943,7.988,7.927
							S43.994-293.49,43.978-297.879L43.978-297.879z"/>
					</g>
				</g>
				
					<linearGradient id="SVGID_24_" gradientUnits="userSpaceOnUse" x1="-602.7822" y1="-534.8306" x2="-602.7822" y2="-520.4848" gradientTransform="matrix(0.0068 0.9999 -0.9999 0.0068 -485.6567 308.4214)">
					<stop  offset="0" style="stop-color:#FFFFFF"/>
					<stop  offset="0.7422" style="stop-color:#FFFFFF;stop-opacity:0"/>
				</linearGradient>
				<circle fill="url(#SVGID_24_)" cx="36.002" cy="-297.875" r="4.51"/>
			</g>
			<g>
				<g>
					<path fill="#5A9CD4" d="M9.705-321.542c5.172-1.826,11.009-3.59,17.462-5.077c7.578-1.746,14.586-2.781,20.807-3.376
						c-4.033-2.153-8.066-4.307-12.101-6.461c-9.682-5.17-20.916-6.633-31.6-4.115l-21.36,5.035L9.705-321.542z"/>
				</g>
			</g>
			<g>
				<g>
					<path fill="#DCDDE0" d="M11.12-322.229c4.418-1.56,9.404-3.067,14.917-4.337c6.475-1.491,12.46-2.375,17.774-2.884
						c-3.445-1.84-6.892-3.68-10.337-5.52c-8.271-4.417-17.868-5.666-26.994-3.515l-18.247,4.301L11.12-322.229z"/>
				</g>
			</g>
			<g>
				<g>
					<path fill="#5A9CD4" d="M8.552-274.008c5.14,1.912,10.947,3.772,17.375,5.366c7.548,1.872,14.537,3.023,20.747,3.722
						c-4.068,2.086-8.138,4.173-12.206,6.259c-9.767,5.008-21.024,6.284-31.664,3.588l-21.273-5.39L8.552-274.008z"/>
				</g>
			</g>
			<g>
				<g>
					<path fill="#DCDDE0" d="M10.729-272.923c4.58,1.704,9.754,3.361,15.479,4.781c6.726,1.668,12.952,2.693,18.484,3.315
						c-3.625,1.859-7.249,3.718-10.874,5.576c-8.701,4.462-18.731,5.599-28.21,3.197l-18.953-4.803L10.729-272.923z"/>
				</g>
			</g>
		</g>
	</g>
</g>
<g id="Layer_3">
	<rect x="717.776" y="-152.241" fill="none" width="750" height="500"/>
</g>
</svg>
